<svg width="171" height="159" viewBox="0 0 171 159" fill="none" xmlns="http://www.w3.org/2000/svg">
<path d="M39.0301 50.7175C38.9051 50.3608 39.0451 50.5098 38.7047 50.3775C38.8131 50.4909 38.9216 50.6042 39.0301 50.7175ZM149.045 57.7687C149.1 57.7968 149.154 57.8253 149.208 57.8534C151.35 57.4373 152.938 53.8645 152.136 50.887C151.786 49.5906 147.682 45.0464 146.687 44.6006C145.456 47.0206 142.353 52.9017 144.655 56.1545C145.601 57.4913 148.093 57.3526 148.558 59.1277C148.612 59.0996 148.666 59.071 148.721 59.0424C148.741 55.747 147.628 53.0479 147.257 50.377H147.338V50.547C148.54 52.2821 148.584 55.3195 149.045 57.7687ZM165.633 82.4901C165.528 78.5816 164.349 75.7115 160.998 75.0989C159.698 75.3537 158.396 75.6089 157.095 75.8637V75.9489C157.122 76.0056 157.149 76.0623 157.176 76.119C159.669 76.0661 161.26 77.8449 162.299 79.3469C160.752 78.5881 160.216 76.7407 157.989 76.6284C157.329 77.2847 157.751 79.3231 158.152 79.9416C159.465 81.9682 161.111 81.836 164.006 82.3206C164.532 82.408 165.068 82.6487 165.633 82.4901ZM164.169 77.9879C164.115 77.9599 164.061 77.9313 164.007 77.9032C163.898 77.6765 163.79 77.4504 163.681 77.2237C163.844 77.4779 164.007 77.7326 164.169 77.9879ZM26.3825 37.1026C26.4631 38.0875 26.694 39.08 27.0024 40.0591C26.7353 39.107 26.5132 38.1151 26.3825 37.1026ZM157.177 51.8218C157.773 50.0095 158.369 48.1971 158.966 46.3848H159.047C158.532 48.2819 158.017 50.1795 157.502 52.0765C158.203 52.2584 158.959 51.8601 159.453 51.567C162.077 50.0111 160.528 46.366 159.697 44.0911H159.372C157.707 46.3066 153.498 48.3353 156.77 52.0765C156.906 51.9918 157.041 51.907 157.177 51.8218ZM156.526 50.5475H156.445V50.2928C156.472 50.3775 156.499 50.4628 156.526 50.5475C156.608 50.6889 156.689 50.8309 156.77 50.9723V51.227C156.716 51.1984 156.662 51.1703 156.608 51.1423C156.581 50.9442 156.553 50.7461 156.526 50.5475ZM29.3538 46.4701C28.8734 44.6227 27.7333 42.3819 27.0024 40.0596C27.364 41.35 27.8067 42.5686 28.2158 43.6664C28.5883 44.6675 28.6978 45.7798 29.3538 46.4701ZM39.6804 25.8261C40.4367 27.0604 43.2907 29.8199 45.5347 29.3941C46.402 29.1107 47.2693 28.8279 48.1366 28.5446V28.2899C47.4382 28.1916 47.6335 27.8095 47.1608 27.6104C46.3751 27.3837 45.5889 27.157 44.8027 26.9309V26.8456C45.7237 26.9579 46.6003 27.449 47.5674 27.1857V26.8456C47.3235 26.5623 47.0792 26.2795 46.8354 25.9962C46.2475 25.6292 45.045 25.6421 44.3962 25.4867V25.4019C45.5672 25.3804 46.8932 25.3356 47.2419 26.3362C47.6082 26.2622 47.5219 26.2579 47.7296 26.0814C47.6753 26.0248 47.6211 25.9681 47.5669 25.9114C46.9981 24.8266 45.5636 24.0171 43.908 24.0425C42.4988 24.5239 41.0891 25.0053 39.6799 25.4867L39.6804 25.8261ZM47.1613 26.6756H46.7548C46.4836 26.4776 46.2129 26.279 45.9417 26.0809C46.3483 26.2795 46.7548 26.4776 47.1613 26.6756ZM45.6974 24.9767C45.2816 24.8245 44.5026 24.7732 43.9896 24.5519C44.8058 24.5066 45.3456 24.5465 45.6974 24.9767ZM31.793 35.001C30.4567 36.857 26.8423 39.1626 29.5976 42.4769H29.6787C29.8239 41.2151 30.1906 38.8016 30.8983 37.9742C30.5729 39.5598 30.248 41.146 29.9226 42.7316C29.9768 42.7597 30.031 42.7883 30.0852 42.8164C34.1408 40.9447 34.3805 39.2355 32.0368 35.0005H31.793V35.001ZM152.136 79.9416C152.242 81.83 153.858 82.7313 154.412 84.2743C154.304 84.1896 154.195 84.1043 154.087 84.0196C153.355 82.972 152.623 81.9239 151.891 80.8764C151.039 79.3895 150.91 76.5928 149.533 75.6942C149.91 77.0931 151.866 79.5029 151.403 80.8764C150.513 81.1986 150.395 83.7033 150.834 84.7843C151.519 86.4731 155.091 88.1375 157.176 88.2675C157.203 88.2395 157.23 88.2109 157.257 88.1828C157.278 86.8724 157.462 85.3872 157.261 84.2047C157.058 83.6985 156.849 83.2144 156.648 82.7551C156.363 82.299 156.078 81.843 155.793 81.3864C155.929 81.4997 156.065 81.6131 156.2 81.7264C156.34 82.0556 156.491 82.3983 156.648 82.7551C156.77 82.9504 156.892 83.1453 157.014 83.3406C157.13 83.6013 157.208 83.8933 157.261 84.2047C157.772 85.4778 158.239 86.9016 158.443 88.4861C158.281 86.7078 157.913 84.9819 157.258 83.3406C156.58 81.6417 154.928 78.5999 152.136 79.9416ZM41.0628 23.4477C41.9254 23.1935 42.77 22.9798 43.2582 22.3435V22.0887C42.1956 21.582 39.6908 21.3073 38.7858 20.6445V20.5598C40.6356 20.7249 42.0293 21.5631 43.6647 21.7493C43.6916 21.7212 43.7189 21.6926 43.7458 21.6645C43.6807 18.8435 41.7916 18.0065 38.8668 18.0966C37.719 18.66 36.3047 19.026 34.8015 19.0314V19.2861C35.8191 21.6203 37.6566 24.4505 41.0628 23.4477ZM45.779 15.8018C45.5156 16.6216 45.7186 17.2201 46.6737 17.246C46.7279 17.1894 46.7822 17.1327 46.8364 17.076C46.9527 16.6772 47.0348 16.5374 46.9991 16.1413C46.7176 15.8568 46.5714 15.6626 46.1045 15.5465C45.996 15.6318 45.8875 15.7165 45.779 15.8018ZM46.5921 16.2266C46.5652 16.3966 46.5378 16.5666 46.511 16.736H46.1855C46.1313 16.6794 46.0771 16.6227 46.0228 16.566C46.0497 16.396 46.0771 16.226 46.1039 16.0565C46.2666 16.0846 46.4294 16.1132 46.5916 16.1413L46.5921 16.2266ZM48.6248 31.1783C47.8928 31.5178 47.1613 31.8578 46.4294 32.1978C45.5223 32.8978 43.3744 37.1074 43.7458 38.7395H43.8269C44.2066 38.4848 44.5857 38.2295 44.9654 37.9747C45.6158 38.0314 46.2667 38.0881 46.917 38.1448C49.9043 38.441 52.8947 37.686 53.6659 35.5963C53.8287 34.9735 53.9914 34.3501 54.1536 33.7273C53.3865 32.22 50.8889 31.1535 48.6248 31.1783ZM51.471 32.2826C50.8749 32.0845 50.2783 31.8859 49.6822 31.6878C50.4043 31.6916 51.1017 31.8945 51.471 32.2826ZM53.5848 33.9821C52.0671 34.1801 50.549 34.3787 49.0313 34.5768V34.4921C49.1124 34.4635 49.194 34.4354 49.2751 34.4073C50.6575 34.124 52.0398 33.8412 53.4221 33.5578C53.5574 33.5859 53.6933 33.6145 53.8287 33.6431C53.7212 33.967 53.8291 33.8185 53.5848 33.9821ZM32.7688 45.8754C32.073 45.993 30.9846 46.1684 30.3296 45.8754C30.1126 44.9978 29.8957 44.1197 29.6792 43.2417C29.6792 46.2753 31.8209 52.1078 34.3139 51.9918C35.8796 51.9189 37.9179 52.2276 38.6236 51.0576C37.326 50.5324 34.9095 49.1902 34.07 48.0844C35.5283 48.5847 37.032 50.472 38.6236 50.2933C38.6504 50.2081 38.6778 50.1233 38.7047 50.0386C38.9418 49.4287 38.701 48.5345 38.5419 48.0849C37.8787 46.2068 35.5851 45.3999 32.7688 45.8754ZM36.0216 50.6328C36.7262 51.0813 36.8662 51.1952 37.8916 51.0576V51.1423H37.7289C37.1731 51.5341 35.6445 51.88 34.8831 51.4823C35.3439 51.4542 35.8047 51.4256 36.2654 51.3976C36.2866 51.0376 36.1678 50.9955 36.0216 50.6328ZM26.833 29.9041H27.2395C28.0195 28.3131 29.0996 25.804 30.4107 24.7219C29.2453 26.9304 28.0794 29.1399 26.9141 31.3483C26.2131 33.2545 26.1387 35.2136 26.382 37.1031C26.3314 36.4819 26.3345 35.8645 26.4259 35.2563C26.6604 33.7009 26.6971 31.2037 27.8082 30.5841C28.8099 30.2069 29.9401 30.4918 30.7356 29.9894C32.6149 28.802 32.8008 26.1975 32.3618 23.2782C32.3349 22.7402 32.3075 22.2021 32.2806 21.664C32.1345 21.4908 32.2796 21.6041 32.0368 21.494C30.2598 23.1347 27.2271 23.4223 26.101 25.7414C25.4858 27.0086 25.9517 29.3763 26.833 29.9041ZM158.545 90.5359C158.568 89.824 158.528 89.1418 158.443 88.4856C158.505 89.1618 158.538 89.8456 158.545 90.5359ZM142.378 82.9148C141.628 84.0654 140.88 85.4498 139.857 86.3127C139.06 86.9852 137.886 87.4359 137.418 88.4365C138.236 87.9049 143.013 83.8766 142.378 82.9148ZM157.258 100.416H157.421C158.049 97.117 158.575 93.7627 158.545 90.5359C158.528 91.04 158.481 91.5575 158.396 92.0902C157.999 94.5874 156.939 97.7878 157.258 100.416ZM56.5122 36.9553C54.3592 37.8852 52.3626 38.4184 51.0645 40.1837C50.4142 41.4293 49.7633 42.6755 49.1129 43.9217C48.8149 44.035 48.5168 44.1483 48.2182 44.2617C47.0472 45.0588 46.1179 47.4157 46.7548 49.5286C47.2584 51.1995 48.9487 52.9271 50.0887 54.0313H50.4141C51.3502 52.1661 53.2697 51.0657 53.7481 48.7644C54.3132 46.0465 52.2671 43.3442 49.9265 43.8369C49.8723 43.9222 49.818 44.0069 49.7638 44.0917C48.9709 45.5926 50.2871 48.2258 49.6827 49.5286C49.5401 48.0029 48.7994 45.9326 49.2761 44.1764C49.9864 41.5594 51.9199 39.494 53.9924 38.2295C54.9682 37.8047 55.944 37.38 56.9198 36.9553H56.5122ZM47.1613 46.9796C47.3421 45.6859 47.9708 45.2677 48.6248 44.5159H48.8686C48.2833 45.2882 47.7709 46.1539 47.1613 46.9796ZM142.784 92.0049C146.064 94.3591 149.802 90.4706 151.159 88.5217V88.3517C149.27 87.0279 147.761 85.7088 144.573 85.718C143.166 86.4488 141.705 87.2232 141.402 89.0312C143.109 89.0032 144.817 88.9745 146.525 88.9459C144.817 89.0873 143.109 89.2293 141.402 89.3707V89.4554C141.505 90.6406 142.042 91.4717 142.784 92.0049ZM157.177 91.6655C157.763 91.0421 158.19 88.2195 157.583 87.2481C157.601 89.0005 157.194 90.1829 157.096 91.6655H157.177ZM160.673 85.8886C160.862 86.2286 161.053 86.568 161.242 86.908C161.128 86.4887 160.954 86.1358 160.673 85.8886ZM54.7233 41.7127C54.5064 41.9394 54.2894 42.166 54.073 42.3922C54.4387 43.2951 54.9238 43.6011 55.6991 42.9869V42.5622C55.5271 42.1871 55.4161 41.9771 55.0488 41.7974C54.9403 41.7693 54.8318 41.7408 54.7233 41.7127ZM55.3737 42.3922L55.1299 42.9016H54.8861C54.7776 42.7316 54.6691 42.5616 54.5606 42.3922C54.6149 42.3355 54.6691 42.2788 54.7233 42.2222C54.9403 42.2508 55.1572 42.2788 55.3737 42.3074V42.3922ZM130.994 55.475C129.934 58.1972 124.911 60.3771 124.489 64.0551C124.57 64.0837 124.652 64.1118 124.733 64.1398C128.973 66.8691 132.986 59.9534 131.401 55.4744H130.994V55.475ZM109.04 14.6123C110.132 14.8557 111.37 14.3371 112.048 14.7823C114.773 16.5741 113.411 20.1442 112.698 23.023C112.753 22.9949 112.807 22.9663 112.861 22.9377C113.259 21.6322 113.87 20.4313 114.162 18.945C114.965 14.8633 109.028 12.7908 107.332 10.7044C109.236 11.3547 110.568 13.0855 112.211 14.0176C112.347 13.9609 112.483 13.9042 112.618 13.8476C112.709 8.0906 108.84 10.3433 104.975 9.51487C104.704 11.706 107.152 14.1914 109.04 14.6123ZM145.224 32.1125C144.879 34.1397 144.262 35.7917 143.923 37.5495H144.004V37.3795C144.338 36.856 145.854 32.8557 145.224 32.1125ZM121.806 34.9163C121.923 34.7803 122.125 34.7646 121.887 34.6615C121.86 34.7463 121.833 34.8315 121.806 34.9163ZM122.213 33.7268C122.456 33.5007 122.701 33.2734 122.944 33.0473C124.089 30.6861 125.127 30.0703 123.026 27.6104C122.677 27.2024 122.623 26.6999 122.05 26.5062C121.467 27.5937 118.379 32.1978 121.481 32.9626V32.7926C121.643 32.0845 121.806 31.3764 121.968 30.6688H122.049C122.015 31.7337 122.241 32.7051 122.13 33.7273H122.213V33.7268ZM123.758 29.6494L123.839 29.9041H123.758V29.6494ZM119.448 9.77014H119.204C117.623 12.0601 112.876 11.842 115.707 16.9913C119.573 16.9287 120.679 13.5275 119.448 9.77014ZM117.252 13.5081C117.485 14.2572 116.446 16.328 115.951 16.7366C115.897 16.7085 115.843 16.6799 115.789 16.6518C115.903 15.2724 116.897 14.7354 117.252 13.5081ZM145.386 31.6878C145.647 30.5361 145.869 29.2133 145.874 27.6951C145.928 27.7232 145.982 27.7518 146.037 27.7798C146.054 29.4518 145.852 30.7547 145.711 32.1125H146.118C149.459 30.7563 148.47 26.3459 146.443 24.2119H146.199C144.736 26.5477 142.196 28.6277 144.98 31.7731C145.115 31.7445 145.251 31.7164 145.386 31.6878ZM144.167 39.249C145.29 41.35 150.192 46.3643 153.03 42.3922V42.3074C151.295 41.5427 149.56 40.7779 147.826 40.0137C149.293 40.1994 152.053 42.0937 153.03 41.798C153.111 41.7413 153.193 41.6846 153.274 41.6279C153.341 38.5398 151.41 37.3028 148.476 37.3805C147.004 38.0611 145.08 38.0017 144.167 39.249ZM129.693 33.8121C129.72 33.9254 129.747 34.0387 129.774 34.1521C130.636 34.2039 131.519 34.4046 132.376 34.2368C134.524 32.6199 134.763 30.4174 135.059 26.7609C134.951 26.7042 134.842 26.6476 134.734 26.5909C132.426 28.3336 125.967 28.6623 128.798 33.8968H128.879C128.987 33.8682 129.096 33.8401 129.204 33.8121C130.207 32.7645 131.21 31.7164 132.213 30.6688C131.835 31.9647 130.43 32.8158 129.693 33.8121ZM130.831 33.8121C130.505 33.7629 130.588 33.8158 130.425 33.642C130.56 33.6701 130.696 33.6987 130.831 33.7268V33.8121ZM128.88 33.132C128.799 32.6792 128.717 32.2259 128.636 31.7731C128.908 32.1158 129.027 32.7051 129.043 33.302C128.988 33.2454 128.934 33.1887 128.88 33.132ZM143.11 39.079V39.249C143.113 39.1858 143.116 39.1221 143.119 39.0585C143.116 39.0649 143.113 39.073 143.11 39.079ZM138.719 24.9767V24.8914C138.692 24.8067 138.665 24.7214 138.638 24.6366C138.132 23.6204 136.636 23.1109 135.955 22.1729C137.559 22.9053 138.849 24.4418 140.102 25.5709C139.708 24.6928 139.715 23.3317 139.289 22.2577C138.591 20.4988 135.809 20.0983 133.516 20.0487C133.346 21.9824 135.688 26.5785 138.719 24.9767ZM134.735 54.2008C134.816 54.1727 134.897 54.1441 134.978 54.116C137.901 49.6937 133.468 47.0238 129.693 46.5554C127.979 50.0391 129.637 53.6772 131.644 55.2208C132.253 55.1177 132.858 54.6719 133.433 54.8808C134.389 55.3881 134.157 56.5905 134.572 57.684H134.653C134.883 53.6918 132.493 52.5147 131.401 49.8681C131.536 49.9814 131.672 50.0947 131.807 50.2081C132.313 51.3657 133.776 53.4257 134.735 54.2008ZM143.272 36.1058C143.221 37.0896 143.171 38.0746 143.119 39.0585C143.392 38.5382 143.719 36.7097 143.272 36.1058ZM135.954 28.3746C136.232 32.1471 137.215 36.8236 141.24 36.2752C141.937 34.3345 139.715 32.6188 138.963 31.4331C138.99 31.405 139.017 31.3764 139.044 31.3483C140.079 32.2539 141.59 34.0986 142.134 35.4263C142.243 35.3982 142.351 35.3696 142.46 35.341C142.534 34.226 143.148 33.2945 142.866 31.9431C142.33 29.3741 138.991 28.3185 136.117 28.2051C136.063 28.2613 136.008 28.3185 135.954 28.3746ZM142.703 43.1569C142.893 42.5908 143.083 42.0241 143.272 41.4579C143.055 42.0241 142.838 42.5908 142.622 43.1569H142.703ZM71.6362 7.30642C73.1854 7.69662 74.5697 6.71978 75.8643 7.56117C77.7854 8.80949 79.9028 12.0504 81.7185 12.8281C80.2282 10.795 77.7983 8.60925 75.7827 7.13587C74.0341 5.85787 72.1316 4.85404 70.8226 3.1432C72.5634 3.76979 73.3972 6.07861 75.295 6.37167C75.4304 6.25833 75.5662 6.14499 75.7015 6.03166C76.8664 0.909927 72.0148 0.655733 68.3834 0C68.1261 2.90897 69.3044 6.71923 71.6362 7.30642ZM75.8643 15.7165C76.9237 15.498 80.2277 15.9303 80.8243 15.3765H77.8969C76.6551 15.0495 76.0983 14.1471 74.2381 14.1023C73.8047 14.2156 73.3708 14.329 72.9374 14.4423C72.0257 15.0101 69.8979 18.2666 69.5224 19.3697H70.1727C72.3578 18.836 79.5825 19.3665 78.4667 16.2266C77.8587 15.1029 74.1436 16.5088 73.2629 16.736C73.3171 16.6513 73.3713 16.566 73.4256 16.4813C74.2381 16.2265 75.0512 15.9718 75.8643 15.7165ZM153.111 56.4097C153.909 56.1744 156.067 50.5486 155.306 49.6133C154.989 52.2265 154.116 54.5273 153.111 56.4097ZM72.0427 34.5763C76.1448 33.3808 77.7032 30.3963 75.295 25.9962C74.8074 25.0619 74.3192 24.1272 73.8316 23.193H73.6689C72.6926 25.1267 70.5075 25.8844 69.4408 27.7804C67.8089 30.6796 70.3055 33.1865 71.3107 34.9163C71.8903 35.9136 72.1889 37.4054 73.0185 38.1448H73.0996C72.7897 36.7793 71.4735 35.558 71.3107 34.3221C71.4461 33.8973 71.582 33.4726 71.7173 33.0478C71.8526 31.5469 71.9885 30.046 72.1238 28.5451C72.1781 28.5732 72.2323 28.6018 72.2865 28.6299C72.1781 30.6116 72.0696 32.5945 71.9611 34.5768L72.0427 34.5763ZM156.038 54.6255C155.655 55.2548 155.075 55.7394 154.33 55.985V56.0697C155.118 56.0163 156.158 55.3017 156.038 54.6255ZM74.0754 12.2339C75.2408 12.1486 76.4067 12.0639 77.572 11.9791C73.3073 12.012 70.6129 12.3661 67.5708 10.5349V10.4502C69.1412 10.5257 71.4213 12.1421 72.5309 11.8091C72.6393 11.7525 72.7478 11.6958 72.8563 11.6391C72.9374 11.2144 73.019 10.7896 73.1001 10.3649C72.5035 9.10145 71.1067 8.71126 69.3597 8.66593C68.029 9.16677 66.3636 8.86939 65.6192 9.94015C68.6768 14.3166 68.9883 13.2426 74.0754 12.2339ZM71.1486 12.4886C71.3738 12.5868 71.1914 12.515 71.1486 12.7433C70.3623 12.9079 69.854 12.9031 69.1159 12.8281C69.7931 12.7153 70.4708 12.6019 71.1486 12.4886ZM75.8643 20.7292V20.4745C75.7558 20.3612 75.6473 20.2478 75.5388 20.1345C75.2676 20.1059 74.997 20.0778 74.7258 20.0498C74.5904 20.1064 74.4546 20.1631 74.3192 20.2198V20.6445C74.5067 21.086 74.7939 21.2884 75.3761 21.324C75.5393 21.1254 75.7021 20.9273 75.8643 20.7292ZM75.1328 21.0687C75.0517 21.012 74.9701 20.9554 74.889 20.8987C74.8094 20.5938 74.7857 20.6596 74.8079 20.3887C74.9975 20.4454 75.1876 20.502 75.3771 20.5587V20.6434C75.3503 20.7568 75.3229 20.8701 75.2961 20.9834C75.2413 21.012 75.1871 21.0406 75.1328 21.0687ZM150.997 61.9314C151.314 61.1191 154.548 57.0655 155.225 56.6645C154.014 58.7828 152.205 60.2437 151.078 62.3561C151.132 62.4975 151.187 62.6395 151.241 62.7809C155.215 62.7744 156.231 60.3344 155.957 56.1545C155.849 56.1264 155.74 56.0978 155.632 56.0697C153.193 57.6251 148.381 57.46 150.753 62.1014C150.834 62.0447 150.915 61.988 150.997 61.9314ZM151.81 62.2714C151.702 62.328 151.593 62.3847 151.485 62.4414V62.2714C151.539 62.2428 151.593 62.2147 151.647 62.1867H151.973C151.919 62.2147 151.864 62.2428 151.81 62.2714ZM104.974 5.09745H105.3C105.327 5.06938 105.354 5.04077 105.381 5.01271C105.408 4.78604 105.435 4.55936 105.462 4.33323C105.733 4.24849 106.004 4.16323 106.275 4.0785V3.82375C105.748 3.5539 105.444 3.15722 104.974 2.97427C104.722 3.42222 104.492 3.57011 104.161 3.90904V4.07903C104.658 4.37316 104.742 4.51511 104.974 5.09745ZM155.306 48.5091C155.36 48.4805 155.415 48.4524 155.469 48.4238C155.444 46.4269 154.643 42.9767 153.192 42.4769C154.243 44.0652 155.234 45.8921 155.306 48.5091ZM50.1698 11.8939C51.1219 11.7012 51.5093 10.9877 52.5279 10.8744C52.8802 11.101 53.2325 11.3277 53.5848 11.5538C52.0599 9.83868 49.8046 10.0891 48.1371 8.75065C49.5505 8.95304 51.1461 9.43878 52.2841 10.0249C52.3384 9.99683 52.3926 9.96821 52.4468 9.94015C52.2531 7.88282 50.7153 7.06895 48.4626 7.13642C47.4325 7.27782 46.4025 7.41977 45.3725 7.56117V7.8159C46.1096 9.17809 47.8427 12.365 50.1698 11.8939ZM103.429 15.0371C103.402 15.0937 103.375 15.1504 103.348 15.2071C103.402 15.1504 103.457 15.0937 103.511 15.0371H103.429ZM103.266 15.2918C102.399 16.4527 101.532 17.6141 100.665 18.775C101.217 18.5257 103.44 15.5028 103.266 15.2918ZM89.8503 2.71899C89.8771 2.91706 89.9045 3.11567 89.9314 3.31373C90.389 3.33748 90.4603 3.41575 90.7444 3.56848C90.9387 3.20526 90.8379 3.02014 90.7444 2.54899H91.3948V2.37898C91.3137 2.29425 91.2321 2.20898 91.151 2.12425H90.7444C90.6633 1.86951 90.5817 1.61424 90.5006 1.3595H90.2568C89.9815 2.17283 89.826 2.07891 89.281 2.54899C89.3079 2.60566 89.3352 2.66233 89.3621 2.71899H89.8503ZM150.021 70.7668C151.931 72.2326 157.015 71.0965 157.258 68.8131C155.982 67.357 154.762 66.0779 152.055 66.0946C150.367 66.8637 147.246 68.6366 150.021 70.7668ZM152.379 66.5188C152.569 66.5755 152.759 66.6321 152.949 66.6888H152.786C151.75 67.1001 150.525 67.2679 149.859 68.0483C151.412 67.8896 153.31 67.922 154.819 68.133V68.2178C153.401 68.1805 150.308 67.8152 149.615 68.6425C149.669 68.7839 149.723 68.9259 149.777 69.0673C149.696 69.0392 149.615 69.0106 149.534 68.9825C149.507 68.7558 149.479 68.5292 149.453 68.303C150.19 67.1157 151.009 67.1006 152.379 66.5188ZM98.9573 17.416C97.9862 15.2772 96.2613 14.5632 93.1842 14.6123C91.4764 17.7857 98.9909 22.589 98.9573 17.416ZM98.5508 17.9255H98.3881C98.2527 17.5294 98.1169 17.1327 97.9815 16.736C98.34 17.0188 98.5151 17.2892 98.5508 17.9255ZM97.1684 17.3308C97.8322 17.64 98.5007 18.116 97.9815 18.945C97.6835 19.0017 97.3854 19.0583 97.0868 19.115C96.3952 18.7674 95.2928 18.252 94.8914 17.586C95.7024 18.0059 96.9251 18.7944 97.8999 18.6903C97.9541 18.5769 98.0084 18.4636 98.0626 18.3503C97.7646 18.0103 97.4665 17.6708 97.1684 17.3308ZM96.843 19.1997C96.7619 19.2564 96.6803 19.3131 96.5992 19.3697C95.6229 19.074 94.9193 18.6838 94.5665 17.7555C95.2902 18.3427 95.6678 19.0476 96.843 19.1997ZM141.24 36.6152C141.457 37.6914 141.674 38.7676 141.89 39.8437C141.786 41.9895 141.682 44.1354 141.578 46.2812C141.722 43.7857 142.662 37.9942 141.24 36.6152ZM53.0156 29.1394C52.9339 28.4491 52.8265 26.9012 52.4463 26.4209C52.3745 27.224 52.5811 28.5705 53.0156 29.1394ZM57.8945 31.0931H58.22C60.044 28.7357 61.7279 28.4858 59.3585 24.9767C58.9612 24.3879 58.8228 23.6576 58.0572 23.4477C55.8768 27.2272 56.4569 27.4307 57.8945 31.0931ZM60.0088 27.3551C60.1907 27.6104 60.2619 28.0459 60.0088 28.2899V27.3551ZM59.6018 28.9693H59.8456C59.7103 29.1394 59.5744 29.3094 59.439 29.4788C59.3037 29.5641 59.1679 29.6488 59.0325 29.7336C59.1606 29.2878 59.3497 29.2532 59.6018 28.9693ZM58.0572 27.3551C58.3641 27.7011 58.7541 29.6974 58.6265 30.0736C58.4746 30.4152 58.4798 30.4238 58.0572 30.4983V27.3551ZM53.0156 80.4511C53.124 80.423 53.2325 80.3944 53.341 80.3664C53.5518 79.7651 53.8638 79.4403 54.3168 79.0921C58.6823 81.4301 60.9769 76.1578 61.635 72.7205C61.6081 72.6919 61.5807 72.6638 61.5539 72.6357C60.1173 72.551 58.6807 72.4657 57.2442 72.381C56.4853 72.5224 55.7265 72.6643 54.9677 72.8057C53.1483 73.5991 51.9468 75.9025 53.1788 78.1579H53.5043C54.4418 76.8805 56.2348 75.2182 57.8139 74.6747C57.7871 74.7314 57.7597 74.788 57.7328 74.8447C55.8401 75.7072 53.4329 78.064 53.0156 80.4511ZM45.6974 69.7473C49.7684 69.5789 51.0991 65.5695 51.7143 61.7614C50.7928 61.6766 49.8712 61.5914 48.9497 61.5066C47.9073 61.8963 46.7378 61.715 45.8596 62.1861C43.9457 63.2126 42.5019 67.6727 44.8027 69.5773H45.0465C44.8786 67.5178 46.0399 64.7254 47.4858 64.0551C46.8153 65.2176 44.4711 67.6085 45.6974 69.7473ZM44.1529 66.8588C44.0578 66.1998 44.0997 65.4777 44.234 64.9051C44.2071 65.556 44.1797 66.2074 44.1529 66.8588ZM114.894 32.6226C114.488 32.7926 114.081 32.9626 113.675 33.132C113.149 34.2443 114.332 36.6012 115.951 36.1905C116.873 35.5677 117.794 34.9443 118.716 34.3215C118.528 32.8109 116.642 32.5583 114.894 32.6226ZM115.382 35.0863C115.03 35.0582 114.677 35.0296 114.325 35.0015C114.298 34.9168 114.271 34.8315 114.244 34.7468C114.141 34.4505 114.199 34.3755 114.325 34.1521C114.836 34.3933 115.209 34.4003 115.464 34.9168C115.436 34.9729 115.409 35.0296 115.382 35.0863ZM117.74 34.4915C117.496 34.6329 117.252 34.7749 117.008 34.9163C117.155 34.4608 117.397 34.4564 117.659 34.1515H117.902C117.849 34.2649 117.794 34.3782 117.74 34.4915ZM123.676 52.1618C124.003 51.227 125.04 49.5081 124.489 48.0838C124.104 49.7315 123.856 51.0322 123.432 52.3312C123.513 52.2751 123.595 52.2184 123.676 52.1618ZM100.909 47.1496C102.564 46.0799 104.259 38.6726 102.291 36.6152C99.7931 38.9813 93.0618 38.9079 93.9973 44.4311C94.222 45.7577 94.3273 46.8107 94.973 47.6591C97.42 45.6897 98.3348 41.9761 100.827 40.0132C100.854 39.9279 100.881 39.8432 100.908 39.7584C100.89 39.8831 100.942 39.8437 100.827 40.0132C99.7399 42.4958 96.5894 44.9816 95.7045 47.9138C97.3017 47.8318 99.805 47.8625 100.909 47.1496ZM98.1442 39.419C97.3043 39.9004 96.4639 40.3818 95.6234 40.8632C96.2076 40.0952 97.1421 39.9257 97.9004 39.3342H98.1442V39.419ZM99.7704 38.7389C99.3096 38.909 98.8488 39.079 98.3881 39.2484C98.7672 39.0504 99.1469 38.8518 99.5266 38.6537H99.7704V38.7389ZM101.153 39.419H101.315C101.234 39.5037 101.153 39.589 101.072 39.6737C101.098 39.5884 101.125 39.5037 101.153 39.419ZM99.6888 47.1496C98.6045 47.2629 97.5202 47.3763 96.4365 47.4896C96.6715 47.2392 97.1891 47.2365 97.4934 47.0649C98.2253 47.0929 98.9573 47.121 99.6888 47.1496ZM22.1172 36.2758C22.2257 36.1624 22.3342 36.0491 22.4427 35.9358C22.5832 35.6913 22.2567 31.4843 22.1172 30.4988H22.1984V30.6688C22.3337 31.8297 22.4695 32.9912 22.6049 34.1521C22.8218 34.7182 23.0388 35.2849 23.2552 35.851C23.201 36.4458 23.1467 37.0405 23.0925 37.6353C23.1467 37.6633 23.201 37.6919 23.2552 37.7205C23.2547 36.687 23.513 33.063 23.9056 32.7931V32.9631C24.2233 33.6669 23.8684 34.6032 23.6618 35.2568H23.7429C23.824 35.2002 23.9056 35.1435 23.9867 35.0868C25.1805 32.0111 24.0988 30.6413 22.1978 29.0552C21.8037 28.7259 21.7453 28.3622 21.1409 28.2057C20.2752 30.2851 18.1479 36.0653 22.1172 36.2758ZM114.406 34.5763C114.552 34.7495 114.407 34.6362 114.65 34.7463C114.623 34.6896 114.596 34.6329 114.569 34.5763H114.406ZM111.56 96.9324C107.122 98.1445 108.112 102.47 107.088 107.042C110.369 106.082 114.349 105.58 115.951 102.795C116.673 101.539 116.7 98.2072 115.219 97.6977C114.65 98.8354 113.488 100.717 112.374 101.266C113.325 99.8597 114.394 98.4171 115.166 96.9534C115.11 97.0074 115.048 97.0576 114.975 97.1029C114.067 97.4305 112.791 96.5961 111.56 96.9324ZM14.8802 81.6406C13.9064 80.5909 12.6403 79.8466 10.6521 79.8564C9.5647 80.3944 8.86062 80.6654 8.29395 81.7253V81.9801C10.2936 84.223 13.3677 84.5981 14.8802 81.6406ZM13.3351 81.0459C11.7126 80.6357 9.83798 80.1974 8.94432 81.8106C8.99856 81.9239 9.0528 82.0373 9.10704 82.1506H9.02595C8.97171 82.0659 8.91747 81.9806 8.86323 81.8959V81.6411C9.21243 80.8138 9.91338 80.6977 10.6521 80.2816C12.132 80.2212 13.3765 80.6411 13.7422 81.4711C13.6611 81.5278 13.5794 81.5845 13.4983 81.6411C12.0762 81.619 10.524 81.5532 9.35139 81.8111C10.1402 80.9352 12.1558 81.2212 13.4983 81.3864C13.4436 81.2725 13.3894 81.1592 13.3351 81.0459ZM112.536 62.3561C112.347 62.6675 112.157 62.9789 111.967 63.2903C112.021 63.2623 112.075 63.2337 112.13 63.2056C112.265 62.9228 112.401 62.6395 112.536 62.3561ZM48.5628 75.5048C48.6449 75.6769 48.7291 75.8442 48.8149 76.0067C48.833 76.0148 48.8505 76.0256 48.8686 76.0337C48.7684 75.8566 48.6656 75.6807 48.5628 75.5048ZM65.1311 60.1477C64.9415 60.431 64.7514 60.7138 64.5618 60.9972C64.6161 61.0824 64.6703 61.1672 64.7245 61.2519C65.1151 61.4289 65.1197 61.6442 65.3749 61.9314C65.5102 61.8466 65.6461 61.7614 65.7814 61.6766C65.8693 61.2071 65.9596 61.2686 66.188 60.9972C65.8956 60.7122 65.5676 60.2454 65.1311 60.1477ZM115.542 96.1795C115.427 96.438 115.301 96.696 115.166 96.9534C115.374 96.75 115.47 96.4877 115.542 96.1795ZM133.596 134.312C140.174 128.783 145.363 118.349 149.289 110.015C148.087 111.243 147.481 113.211 146.606 114.773C144.763 117.972 142.92 121.173 141.077 124.372C134.762 134.281 123.538 141.23 110.747 144.421C102.177 146.56 92.4166 144.435 88.7929 138.985C87.3976 136.886 87.1109 133.394 88.0609 130.574C90.1649 124.328 93.271 119.648 94.566 112.224C95.9793 104.121 91.0213 99.0993 95.8672 92.685C98.2765 89.4959 102.059 88.1866 106.763 87.3328C108.261 87.0608 111.778 87.4213 112.211 88.3523C107.741 86.5173 99.9222 88.5234 97.8999 91.3255C99.011 90.7027 100.123 90.0793 101.234 89.4565C103.808 88.3091 109.727 87.4359 112.943 88.777C114.959 89.6179 116.429 92.4561 115.707 95.4034C115.639 95.684 115.597 95.9448 115.542 96.1795C116.714 93.542 116.684 90.8468 113.024 88.1823C113.079 88.1256 113.133 88.0689 113.187 88.0123C115.545 89.0032 117.903 89.9946 120.261 90.9855C120.235 91.0988 120.207 91.2121 120.18 91.3255C119.041 91.7346 118.344 92.6234 117.822 93.7039C115.526 98.4597 120.829 103.481 123.27 105.172H123.351V105.002C123.568 104.153 123.785 103.304 124.001 102.454C124.79 100.621 126.747 98.9044 126.034 96.5071C126.115 96.5638 126.197 96.6205 126.278 96.6771C127.284 100.124 129.715 102.594 129.775 107.211C128.88 108.061 127.986 108.91 127.091 109.76C123.375 115.095 131.717 119.256 134.247 121.228C134.301 121.2 134.355 121.172 134.41 121.144C134.441 117.339 136.796 113.484 134.572 110.1C133.572 108.578 131.297 108.389 130.425 107.211C130.127 105.966 129.829 104.719 129.531 103.474C128.787 100.994 127.452 98.9767 126.603 96.7624C126.252 95.8449 126.255 94.9646 125.79 94.2139C124.121 91.5154 120.363 91.1609 118.554 88.607C118.581 88.579 118.608 88.5503 118.635 88.5223C119.122 89.0037 119.611 89.4851 120.098 89.9665C121.426 90.6179 122.754 91.2693 124.082 91.9202C126.101 93.155 128.036 94.5291 130.344 95.4882C132.566 96.1676 134.789 96.8476 137.012 97.5271V99.8208H136.605C134.958 99.2277 132.858 99.7005 131.32 99.9056C130.154 98.2849 128.404 96.35 126.766 95.2329C128.446 97.0452 130.127 98.8575 131.807 100.67C133.323 101.701 135.642 102.425 136.442 104.153C134.899 103.003 133.535 101.762 131.644 100.925C131.563 101.038 131.482 101.151 131.401 101.265C131.093 101.999 131.268 103.221 131.482 103.898C132.718 107.818 137.194 106.61 140.752 108.061C140.806 108.004 140.86 107.948 140.914 107.891C140.644 106.606 140.509 103.653 139.451 103.133C139.857 104.038 140.074 105.403 140.264 106.531H140.183C140.156 106.475 140.129 106.418 140.102 106.361C139.885 105.427 139.668 104.492 139.451 103.558C138.991 102.68 138.53 101.803 138.069 100.925C138.15 100.981 138.232 101.038 138.313 101.095C139.367 104.199 141.886 103.25 145.224 104.068C145.739 104.351 146.254 104.634 146.77 104.917C146.796 104.889 146.824 104.861 146.851 104.832C146.596 101.253 145.165 96.8644 142.46 95.8276C140.685 95.1471 139.209 96.5643 137.825 96.4224C134.943 96.1266 127.031 92.536 125.628 90.7302V90.6454C129.12 91.5122 136.516 91.652 139.126 89.5412C137.908 89.8186 134.278 91.0513 133.027 90.5607C137.111 89.9654 140.544 85.2053 138.638 80.2811C138.327 79.4791 138.211 78.6134 137.662 78.0727C138.123 79.3469 138.584 80.6211 139.044 81.8953C139.973 86.9064 134.973 90.986 129.856 90.0507C126.333 89.286 122.809 88.5212 119.286 87.757C116.204 86.7688 113.756 85.1006 110.341 84.359C105.871 83.3881 103.147 84.7843 100.177 85.888C101.213 84.5652 107.847 80.3275 110.83 81.3006C111.836 81.6287 112.46 83.0211 114.082 82.8295C115.56 82.6552 116.459 81.7113 117.66 81.47C118.801 81.2412 120.782 82.5009 122.376 82.0648C122.366 81.3956 122.147 80.9417 121.725 80.7058C120.841 80.0064 119.458 80.3075 118.229 80.3658C118.202 80.4225 118.175 80.4792 118.148 80.5358L118.392 81.0453C119.394 81.1867 120.397 81.3286 121.4 81.47V81.5548C120.506 81.4981 119.611 81.4414 118.716 81.3848C116.75 80.661 115.279 77.1411 112.211 79.5158C111.704 79.9082 111.241 80.2077 111.073 80.96C111.127 81.0167 111.181 81.0734 111.236 81.13C111.29 81.1014 111.344 81.0734 111.398 81.0453C111.839 78.9248 115.179 78.7392 116.439 80.1958C114.708 79.6432 113.006 78.9372 112.13 80.7053C112.482 80.422 112.834 80.1391 113.187 79.8558C113.132 79.9972 113.078 80.1392 113.024 80.2806C113.548 79.9924 114.449 79.6556 115.138 80.0258C113.377 79.9843 112.847 80.5196 112.455 81.64C111.584 81.5904 111.456 81.1986 110.828 81.0453C109.482 80.7166 107.483 81.2499 106.519 81.5548C106.821 80.7943 109.583 78.9874 110.34 78.4116C114.507 75.2436 118.946 71.7118 126.196 73.2294V73.6541C125.713 74.842 124.251 75.9117 122.7 75.6078C121.571 73.2121 118.641 73.9299 117.252 75.5231V75.9479C120.996 78.8439 121.754 76.1179 125.627 75.2684C125.476 76.0995 124.996 77.1104 125.22 78.1569C125.497 79.4473 127.707 82.163 129.124 81.3C129.068 79.5061 127.639 77.4612 128.148 75.8631C128.609 77.534 129.069 79.2049 129.53 80.8753H129.611C132.897 78.4245 129.877 72.4096 126.684 73.3994V73.1447C126.738 73.088 126.792 73.0313 126.847 72.9747C130.758 73.8673 134.349 76.6943 137.254 78.8363C136.791 77.2539 133.46 75.27 132.294 74.0789V73.9942C135.542 74.4005 137.623 78.4699 140.995 77.3921C141.645 76.854 142.296 76.3159 142.946 75.7779C142.35 76.4293 141.754 77.0807 141.158 77.7316C140.698 79.3647 141.481 81.5046 142.052 82.489C143.475 82.1841 143.933 79.1499 144.085 77.4768C144.139 77.5616 144.193 77.6468 144.248 77.7316C143.751 79.9049 143.614 81.2671 142.621 82.7437V82.8285C148.095 82.0993 148.047 77.4444 145.386 73.6536C145.061 73.5403 144.736 73.4269 144.41 73.3136C144.736 73.3983 145.061 73.4836 145.386 73.5683V73.6536C145.992 73.9612 146.036 74.6952 146.362 75.2673C147.463 75.5582 149.149 75.4373 150.509 75.4373C156.317 75.4373 160.789 73.9013 161.892 69.0656C162.069 68.2917 162.056 67.4741 161.97 66.6527C162.071 67.5221 162.179 68.3894 162.299 69.2357H162.624C167.177 64.7929 163.941 61.9476 160.998 58.7013C160.944 58.7299 160.89 58.7579 160.836 58.7866C160.699 61.3749 157.179 61.9497 157.908 65.4977C158.185 66.8426 159.057 67.7499 159.616 68.8109C159.507 69.2356 159.399 69.6604 159.291 70.0851C159.345 70.0565 159.399 70.0285 159.453 70.0004C159.643 69.6604 159.833 69.3209 160.023 68.9809C160.483 69.1509 160.944 69.3209 161.405 69.4904C161.138 72.5289 158.259 73.4663 155.876 74.4178C155.333 74.6348 154.406 75.209 153.68 74.9273C156.056 74.3962 157.786 72.9579 158.803 71.0193C156.552 73.238 154.116 75.6413 149.289 74.6726C148.508 72.3195 147.334 68.0634 143.76 69.5751C143.113 69.8487 142.557 70.0182 142.134 70.5093C144.053 70.348 146.085 71.5277 147.013 72.7183C146.091 72.1802 145.17 71.6421 144.248 71.1041C143.327 70.9341 142.405 70.7641 141.483 70.5946C141.429 70.6513 141.375 70.7079 141.321 70.7646C141.375 70.8779 141.429 70.9913 141.483 71.1046C143.063 71.4662 144.488 71.8246 145.305 72.9736C144.79 72.6622 144.275 72.3508 143.76 72.0394C143.144 71.7674 142.196 71.6745 141.646 71.4446C141.808 72.1808 141.971 72.9175 142.133 73.6536C142.419 74.0595 142.885 73.8824 143.109 74.4184H142.865C140.308 73.3881 137.012 72.6811 133.677 73.2289C133.704 73.2855 133.731 73.3422 133.758 73.3989C137.395 73.3276 139.878 74.6002 143.028 75.3526V75.4373C140.792 75.4724 139.149 74.6132 137.418 74.0778C136.418 73.7691 135.375 74.0497 134.165 73.7378C131.678 73.0966 129.416 71.5714 126.766 70.9341C126.82 70.8493 126.875 70.7641 126.929 70.6793C128.338 70.1979 129.748 69.7165 131.157 69.2351C135.693 68.1784 140.923 68.5313 144.98 66.8567C145.929 66.2619 146.877 65.6672 147.826 65.0724C148.785 64.4404 149.993 63.8689 150.672 62.9487C150.617 62.892 150.563 62.8354 150.509 62.7787C150.455 62.8354 150.4 62.892 150.346 62.9487C149.614 63.4868 148.883 64.0249 148.151 64.5629C146.794 65.3968 144.933 65.6369 143.272 66.0919V66.0072C145.472 63.7437 147.99 62.1003 149.452 59.0408C149.303 58.643 149.332 58.7067 148.964 58.786C148.801 59.0122 148.638 59.2394 148.476 59.4655C147.257 59.5076 146.154 59.4876 145.142 59.2108C145.197 59.3522 145.251 59.4941 145.305 59.6355C146.373 59.8077 147.628 59.9685 148.639 59.8055C146.487 62.7954 144.282 65.1965 140.427 66.4319C137.723 67.2981 134.051 67.1141 131.563 68.1309V67.8761C134.112 66.5291 135.249 58.6986 137.418 58.1065V58.1913C136.415 60.3603 137.209 62.8742 138.475 64.1382C140.244 64.0205 143.107 61.8418 141.971 59.466C141.474 58.425 139.815 57.8799 139.613 56.7476C140.823 53.3923 142.892 51.4235 144.329 48.5069C142.012 50.0812 140.428 54.7583 139.044 57.5118C135.686 57.5917 135.934 59.9706 134.409 62.0992C135.064 58.2204 141.388 50.8719 138.8 45.8732C137.635 43.6221 134.691 42.6415 133.19 40.691C135.72 41.6274 137.346 44.3416 139.288 45.9579C139.397 45.9013 139.505 45.8446 139.614 45.7879C140.654 40.9398 138.753 38.3342 134.816 37.4626C132.779 37.0119 130.603 37.1765 129.043 36.5283V36.9531C130.532 40.7267 130.077 45.0977 133.678 46.638C134.355 46.836 135.033 47.0341 135.71 47.2327C137.021 47.4934 137.54 46.6444 138.556 47.2327C139.988 50.9248 136.98 55.9175 135.548 58.1918C133.945 60.7359 133.336 64.1771 131.563 66.5172C130.148 68.3862 124.014 70.0819 121.237 70.5951C121.67 69.5757 122.104 68.5562 122.538 67.5367C123.604 64.9256 124.57 62.558 126.116 60.4855C127.461 58.6824 129.327 57.3234 130.669 55.4734C130.645 54.9984 130.587 54.9774 130.425 54.7086C126.846 54.7879 120.032 59.4428 123.758 63.6287C123.464 64.7432 121.34 70.2255 120.667 70.6799C119.828 70.8779 118.987 71.0766 118.147 71.2746C115.864 71.8899 113.317 72.4614 111.398 73.5683C108.333 75.3358 106.235 77.71 103.51 79.6847C103.809 79.0339 104.536 78.5918 105.055 78.1558C106.714 76.7617 108.594 74.8544 109.772 72.9736C110.856 69.8871 111.94 66.8 113.024 63.7135C113.8 61.8596 115.137 60.771 116.195 59.296C117.42 57.5873 118.302 54.551 118.716 52.1602H118.797C118.639 55.0335 117.325 57.6608 116.276 59.7213C116.384 60.0468 116.276 59.8978 116.52 60.0613C117.303 60.3544 119.063 59.9178 119.61 59.5518C120.954 58.6516 121.344 56.8831 122.294 55.5592C123.492 53.8888 125.637 52.8634 126.441 50.8017C126.836 49.7876 126.603 48.5393 126.36 47.5733H126.278C127.054 51.3242 123.753 53.9228 121.888 55.5592C122.42 53.0409 122.605 49.011 120.424 48.508C119.948 48.3979 119.434 48.3974 119.123 48.678V48.7628C121.356 48.9705 121.899 49.5675 121.807 52.1607C121.752 52.1321 121.698 52.104 121.644 52.076C121.085 46.3719 117.052 50.0802 115.22 51.5665C115.803 50.3748 119.417 48.6505 119.286 47.5738C117.932 44.6265 109.7 45.2348 109.366 49.4428C110.278 50.9545 111.811 52.7571 114.326 52.246C114.149 53.2271 113.832 54.4792 114.082 55.7292C114.31 56.8696 115.333 58.5032 114.976 59.8919L110.992 66.3483C111.485 64.8484 111.209 62.7042 111.561 60.9961C111.887 60.2599 112.212 59.5232 112.537 58.7876C113.232 55.7745 109.928 52.3911 108.553 51.3118H108.39C108.011 51.8212 107.631 52.3312 107.252 52.8407C104.808 51.4148 100.757 51.9794 97.7382 51.3118V51.227C97.8193 51.1984 97.9009 51.1703 97.982 51.1423C98.6324 50.9723 99.2833 50.8023 99.9336 50.6328C103.706 48.9954 107.168 46.3023 111.073 44.6859C112.874 43.9411 115.207 44.0668 117.253 43.4964C118.093 43.1283 118.933 42.7602 119.774 42.3922C119.747 42.4488 119.72 42.5055 119.693 42.5622C118.397 42.9756 117.403 43.9136 116.684 44.9406C116.739 45.082 116.793 45.224 116.847 45.3654C117.687 45.7901 118.527 46.2148 119.368 46.6396C121.048 46.8663 122.729 47.0929 124.409 47.3191V47.0643C123.959 45.7453 123.509 45.769 122.701 44.9406C123.108 44.864 123.366 44.9233 123.758 45.0254C124.035 45.6514 124.703 46.3109 125.384 46.2149C126.546 43.4716 127.537 43.0636 125.547 39.9284C124.837 40.0229 124.566 40.3823 124.002 40.6079C125.608 38.8652 127.289 37.9526 128.393 35.5957C126.708 37.2316 125.823 39.3116 123.514 40.3532C121.239 41.3791 118.037 41.3365 115.789 42.3922C116.183 41.7262 119.791 39.549 120.668 38.7389C123.763 35.8786 125.927 31.7105 128.474 28.2899C129.314 27.1619 132.235 23.7834 131.32 21.4087C131.266 25.7258 128.401 27.4717 126.603 29.9888C125.845 31.1217 125.086 32.2545 124.327 33.3868C125.339 30.3736 128.815 26.6362 127.742 21.4082C127.189 18.7108 125.488 16.844 124.733 14.4418C124.814 14.4984 124.896 14.5551 124.977 14.6118C125.682 15.9427 126.387 17.2736 127.091 18.6044C127.546 19.6849 127.665 20.7562 128.148 21.9177C128.555 21.5215 128.961 21.1248 129.368 20.7282C129.72 20.0201 130.073 19.312 130.425 18.6044C131.879 13.1681 126.964 11.9257 123.595 10.7038C122.971 10.3924 122.348 10.081 121.725 9.76907C121.698 9.82574 121.671 9.88239 121.644 9.93906C122.241 13.541 121.046 17.3653 122.782 19.7087C124.012 21.3682 126.05 21.2139 127.336 22.5119C127.457 26.0048 126.466 28.2532 125.303 30.4978C123.479 34.0188 121.37 37.2877 118.392 39.5879C116.184 41.2933 113.524 42.1703 110.83 43.4106C109.664 44.1753 108.498 44.9401 107.333 45.7043C107.902 44.6281 108.471 43.552 109.041 42.4758C109.887 40.2463 110.113 37.6919 110.992 35.5947C112.212 33.641 113.432 31.6867 114.651 29.733C115.22 28.4307 115.79 27.1279 116.359 25.8251C120.349 25.871 119.845 20.4216 118.392 17.9244C116.669 18.1991 114.518 20.6483 114.163 22.4271C113.884 23.826 114.865 26.042 115.79 25.6556C116.254 23.6479 117.142 22.0693 117.741 20.3882H117.822C117.443 21.351 117.063 22.3138 116.684 23.2766C116.521 24.0694 116.358 24.8623 116.196 25.6551C115.198 28.8414 113.063 31.8681 110.83 33.8104C111.385 31.2123 113.634 28.5295 112.862 24.8056C112.391 22.5291 110.702 20.6542 109.528 19.0287C110.776 19.6067 111.803 21.3931 112.293 22.7666C112.401 22.7385 112.51 22.7099 112.618 22.6819C112.716 21.4821 113.555 20.604 113.269 19.4534C112.475 16.2616 108.035 15.3452 104.324 16.4802V16.8202C105.828 18.5035 106.147 21.6198 108.065 22.8519C109.332 23.6663 111.966 23.0122 112.537 24.5508C113.149 26.2007 112.239 28.9494 111.805 30.1578C111.02 32.3381 110.233 34.5191 109.447 36.6994C108.246 40.3208 107.953 45.0102 104.406 46.0443C104.433 45.959 104.46 45.8743 104.487 45.7896C106.095 44.1645 108.195 36.5618 106.52 33.5562C105.449 31.6338 103.311 30.6095 102.048 28.8835C104.075 29.7611 105.347 31.9134 106.845 33.3862H107.171C107.779 32.0931 107.897 30.2117 107.252 28.8835C105.05 24.3533 98.8183 24.743 94.8924 27.2693C95.1027 28.1657 96.3202 28.5376 96.9251 29.0535C98.854 30.6975 99.4336 33.1936 102.211 34.0657C103.347 34.4224 105.329 34.1002 106.276 34.6605C107.273 38.0125 106.533 39.535 105.3 42.0516C102.391 47.9883 101.517 48.5253 94.4043 50.0375C93.2389 50.2923 92.073 50.5475 90.9077 50.8023C92.164 49.6835 93.8955 49.4768 94.8919 48.0838C94.0789 48.5933 93.2658 49.1033 92.4527 49.6128C90.1731 50.7289 87.7318 51.3468 85.7038 52.6712C82.9123 54.4943 80.2406 57.3985 77.0849 58.7029V58.6182C78.3588 57.1173 79.6326 55.6164 80.9065 54.1155C83.3757 50.704 85.4615 47.1723 88.6312 44.5159C90.3384 43.2417 92.0467 41.9669 93.7539 40.6932C93.6997 40.6365 93.6455 40.5799 93.5912 40.5232C92.1278 41.2879 90.6639 42.0522 89.2004 42.8169V42.7322C90.7682 39.6413 92.6831 37.0227 93.5912 33.0473C94.0742 30.9333 93.3541 27.8425 94.0789 25.9962C95.393 22.65 102.288 18.5694 100.665 13.8476C99.6893 12.2053 98.7135 10.5624 97.7377 8.92011C97.9004 9.06151 98.0631 9.20346 98.2253 9.34487C98.6567 10.3406 99.7595 12.0083 100.583 12.6581C100.746 12.6014 100.909 12.5447 101.071 12.4881C101.25 11.6969 101.815 10.9068 101.559 9.68488C101.075 7.37821 97.855 6.01547 95.5418 5.69219C95.7629 8.38798 95.4865 11.9834 97.4117 12.9133C98.3875 13.1967 99.3633 13.4795 100.339 13.7628C101.563 18.6649 95.8961 22.0898 94.0783 25.2314C93.7803 26.1656 93.4822 27.1004 93.1837 28.0351C93.1568 28.8565 93.1294 29.6774 93.1026 30.4988V30.3288C92.5307 29.0557 91.5436 22.7828 91.8013 20.8992C91.9811 19.5851 93.4585 17.1732 92.9398 16.1418V16.3118C92.1789 17.395 91.4702 19.6299 91.3948 21.2393C91.3405 21.2112 91.2863 21.1826 91.2321 21.1545C91.3132 20.6164 91.3948 20.0784 91.4759 19.5403C90.6628 17.2752 89.8497 15.009 89.0367 12.7439C87.7902 11.4983 86.5427 10.2516 85.2962 9.00594C86.5313 9.76098 88.9003 12.711 89.8498 12.9986L90.0936 12.7439C90.9655 4.30301 85.7637 5.59289 79.1977 4.41851C79.1708 4.44711 79.1434 4.47517 79.1166 4.50323C79.5587 8.49754 81.9076 12.9598 85.2962 13.9328C86.5701 13.9895 87.8439 14.0462 89.1178 14.1028C89.9055 15.92 90.374 18.6611 90.9066 20.644H90.8255C90.7713 20.6159 90.7171 20.5873 90.6628 20.5592C89.5279 16.9125 82.6545 12.48 78.3035 12.1486V12.2339C80.5847 12.5102 82.6044 13.8357 84.2393 14.8676C84.9982 15.2637 85.757 15.6604 86.5158 16.0571C90.2382 18.7653 91.3664 23.1147 92.2079 28.7151H92.1268V28.5451C91.4108 27.5122 91.353 25.8288 90.6634 24.8072C88.4375 21.5091 85.2756 21.0299 80.4994 20.3045V20.2198C82.8085 20.2165 84.7502 20.8669 86.6791 21.0693C86.7059 21.0412 86.7333 21.0126 86.7602 20.984C86.7519 18.8236 84.0229 17.3432 81.6374 18.0108C80.4018 18.3567 79.5014 19.2515 78.5473 19.8798C78.0426 20.2122 77.4305 20.216 77.2461 20.8992C78.427 22.3845 81.7319 24.5956 84.8081 23.363C85.6506 23.0257 86.0618 22.2857 86.7597 21.834C89.6901 22.5367 91.8829 28.2213 92.4517 31.6036C92.8525 33.9891 90.591 39.14 89.5243 40.099H89.4432V39.759C90.1695 37.0886 90.7491 32.4779 89.1994 30.3294C88.0996 28.8042 86.1005 28.1765 84.8086 26.8462C86.6398 27.2251 87.7163 28.897 89.1994 29.7346C89.7805 28.8722 89.296 27.2736 88.9556 26.5914C87.457 23.5891 83.9986 24.6194 80.4178 24.8077C80.5268 25.6502 81.188 26.2946 81.5563 26.9314C83.4273 30.1686 84.4424 31.2598 88.8745 30.5841C92.1257 35.5348 87.7804 41.7812 85.7033 44.5164C84.9914 45.4539 83.5776 47.5571 82.451 47.6596V47.5749C82.9955 46.2235 83.8535 45.0955 84.1587 43.4122C84.8329 39.6948 82.4995 37.1555 81.7195 34.7468C81.7738 34.7749 81.828 34.8035 81.8823 34.8315C82.343 35.6524 82.8038 36.4738 83.2646 37.2953C83.6711 38.5409 84.0776 39.7876 84.4842 41.0332H84.8096C85.8887 39.9695 86.2896 39.0757 86.5985 37.1253C87.3682 32.2685 81.8554 30.746 78.3861 29.9894C78.3593 30.0741 78.3319 30.1594 78.305 30.2441C78.9704 32.6862 77.3912 36.0987 78.7116 38.3995C79.8589 40.3985 83.0089 40.7428 83.5905 41.9674C84.0255 42.7786 83.6024 44.4635 83.2651 45.1106C82.5874 45.9882 81.9096 46.8663 81.2324 47.7443C80.1228 50.5972 80.4286 53.4133 78.2239 55.1355C78.6661 54.0372 79.4663 53.089 79.769 51.8223C80.5764 48.4449 78.7782 45.9213 77.6547 44.1764C76.3214 42.1056 74.7733 40.0218 72.9384 38.4847C72.0443 37.7486 71.1496 37.0119 70.2549 36.2758C68.9707 34.6988 68.0083 32.3775 67.0837 30.4988C66.7045 29.5646 66.3249 28.6299 65.9452 27.6957C66.0056 26.0658 68.3818 23.4434 66.8399 21.0693C65.269 18.6509 61.6634 18.1209 59.1963 16.6518C59.5217 14.4434 59.8466 12.2339 60.1721 10.0254H60.2531C60.0904 12.2625 59.9277 14.5 59.7655 16.7366C61.5291 16.7797 62.2497 16.266 62.9367 15.2076C65.0717 11.9171 62.0203 7.91844 60.6597 5.77746C60.5512 5.86273 60.4427 5.94747 60.3343 6.0322C59.8379 8.65459 55.4393 9.59042 56.7565 13.6781C57.16 14.9302 58.5748 15.0986 58.9519 16.2266C57.5531 15.172 56.3732 13.8049 54.9677 12.8286C55.5529 13.6398 58.5495 16.11 58.7081 16.4818C58.6813 18.5489 58.6539 20.6164 58.627 22.6835C59.311 26.1764 61.9031 26.9795 65.3759 27.6957C66.6767 30.3574 67.9779 33.0198 69.2791 35.681C71.0406 37.9461 72.8026 40.2123 74.5646 42.4774C73.7789 41.6566 72.9927 40.8351 72.2065 40.0137C69.7626 38.0201 67.6344 36.157 64.5634 34.7468C62.6165 33.8525 57.6538 32.7542 56.5948 31.1789C55.8288 30.039 54.5374 26.1176 54.074 24.7225C53.6685 23.5022 53.9676 22.1076 53.6675 20.9845C53.776 21.0698 53.8844 21.1545 53.9929 21.2393C54.306 22.1357 54.1334 22.6484 54.1556 23.4482C54.2367 23.3916 54.3183 23.3349 54.3994 23.2782C54.6479 22.6873 55.0891 22.3057 55.5379 21.9187C55.6464 21.9754 55.7549 22.0321 55.8634 22.0887C56.6165 22.4244 56.8516 23.2102 57.5712 23.533V23.4482C57.144 22.6538 56.4549 22.2615 55.945 21.5793C56.2374 20.6505 56.8526 20.8048 57.4084 20.2198C57.1915 19.9084 56.9745 19.597 56.7581 19.2856C56.5881 18.6557 56.9089 18.1058 56.5143 17.5866C55.8525 16.7166 53.0476 16.1024 51.7169 16.8218V17.1618C52.7361 17.5504 55.3541 20.8631 54.807 22.174C54.7528 22.146 54.6985 22.1173 54.6443 22.0893C54.2548 18.1225 50.7045 17.6454 48.3019 15.8029C47.9909 15.9151 48.133 15.8029 47.9765 16.0576C46.6458 19.2926 48.008 23.6927 49.9281 24.8077C50.5836 25.1882 52.217 26.1095 52.9366 25.3172C52.3725 23.1768 51.0841 22.0742 50.5784 20.2198C50.6327 20.2478 50.6869 20.2764 50.7412 20.3045C51.1198 21.181 52.4143 23.3041 53.0176 24.2125C53.3699 24.4958 53.7222 24.7786 54.0745 25.0619C54.4 26.0248 54.7249 26.9876 55.0503 27.9504C56.0251 31.1843 57.0443 32.5017 60.1731 33.4726V33.5573C58.8724 33.1326 57.5711 32.7078 56.2699 32.2831C56.4099 32.1784 56.4827 32.1703 56.5954 32.0284C53.1344 30.8923 51.3171 28.2618 48.6268 26.4214H48.5458C48.8206 27.1614 49.8702 27.5192 50.3346 28.1204C53.7279 32.5141 60.5528 34.1224 65.784 36.531C66.8327 37.0141 68.0765 37.3066 68.8741 38.06C68.0879 37.7767 67.3022 37.4939 66.516 37.2105C65.5676 37.2391 64.6187 37.2672 63.6703 37.2953C62.8148 37.095 61.8163 36.3767 60.5802 36.6158C58.5031 37.0179 57.114 39.9031 56.677 41.968C56.7038 41.996 56.7312 42.0246 56.7581 42.0527C60.7175 41.8714 65.1595 42.648 65.4586 38.4C65.3775 38.3153 65.2959 38.23 65.2148 38.1453C63.1547 38.1064 62.2332 39.0676 60.5802 39.4195C61.1117 38.841 61.8989 38.7217 62.6944 38.4C68.2909 36.1371 73.6838 41.6409 76.0296 45.0264V45.1112C72.1021 45.0388 69.261 47.2316 66.1906 48.1696V48.0844C67.1193 47.2052 72.7783 45.6509 72.9395 44.8559C72.3418 43.8995 71.4342 43.5272 70.1748 43.2417C65.4705 42.1758 64.6553 46.6018 62.0436 48.2538C61.3932 47.3763 60.7424 46.4982 60.092 45.6201C60.0109 45.6768 59.9293 45.7334 59.8482 45.7901C58.7484 48.7552 55.0808 49.643 54.3189 53.1813C53.7961 55.6072 56.3118 60.4089 57.6528 59.0429C57.8155 58.0234 57.9782 57.0039 58.1409 55.9845C58.5475 54.5402 58.954 53.096 59.3605 51.6518H59.4416C59.1389 54.4053 57.1212 58.4519 58.222 61.3366C58.7102 62.6157 59.9148 63.2866 60.6613 64.3098C59.2144 63.6455 57.5412 61.9184 56.0266 60.9966C50.9359 57.8988 39.3855 52.6664 44.8869 43.2411C45.9888 41.3538 47.6604 40.0968 49.7659 39.2484C50.7417 38.8803 51.7175 38.5123 52.6932 38.1442C46.6432 38.7859 41.8557 44.0075 43.017 51.397C42.9627 51.3684 42.9085 51.3403 42.8542 51.3123C42.318 49.1832 38.2707 44.96 38.87 42.2222C40.008 41.2593 41.147 40.2965 42.285 39.3337C44.4556 35.5828 41.2642 32.3797 39.8457 30.4983C39.5038 30.045 39.3209 29.1259 38.7889 28.8841C38.4448 29.9214 37.5822 30.4794 37 31.2625C34.8118 34.2076 33.4677 36.7253 35.8615 40.5226C36.4349 41.4326 36.9535 42.0327 37.9758 42.4764C38.03 42.4483 38.0843 42.4197 38.1385 42.3916C38.0481 40.562 37.8962 35.9962 38.7077 34.9157H38.7889C38.6747 36.9396 37.9882 39.3742 38.3823 41.7969C39.0265 45.7577 40.7921 49.2954 42.692 52.076C43.6167 53.4295 46.1861 55.1258 46.6763 56.5786C46.3782 56.72 46.0802 56.862 45.7816 57.0034C45.9443 56.7767 46.107 56.5501 46.2692 56.3239C46.215 56.2392 46.1607 56.1539 46.1065 56.0692C44.3869 55.7605 43.3352 57.0477 41.6341 56.6639C38.4479 55.9451 33.9486 53.0129 31.5513 51.1417C30.1152 50.0208 28.6471 48.032 27.6481 46.469C27.1687 45.7189 26.8934 44.6724 26.103 44.2606V44.3453C27.1723 46.7443 28.548 49.9641 30.25 51.8212C29.7221 54.0259 26.2983 57.9025 30.4128 59.3824C30.9546 59.5238 31.497 59.6657 32.0389 59.8071C32.4656 59.6209 34.5386 55.9542 34.2343 54.8797C33.8908 53.6654 32.5529 53.2503 32.0389 52.246C34.1124 53.7917 35.6915 57.1594 38.4624 57.7681C40.1676 58.1427 43.3801 56.073 44.9675 56.6639C42.9348 57.1453 40.9016 57.6267 38.8689 58.1082C37.5765 59.1093 36.8936 61.9924 35.4539 63.0356C33.9548 64.122 30.3719 65.2613 30.3311 67.7078C30.702 68.5729 32.027 70.1861 33.3396 69.6615C33.4207 69.5767 33.5023 69.4915 33.5834 69.4067C33.1759 68.5972 31.9263 66.8836 32.3638 65.6688C32.5994 65.1679 33.2094 64.903 33.7462 64.734C33.367 65.0454 32.9873 65.3574 32.6077 65.6688C32.5854 67.126 33.1877 68.1762 33.7462 69.0667C33.9089 69.0387 34.0716 69.0101 34.2338 68.982C35.8904 68.1244 34.8526 65.8787 35.2907 64.1398C35.6972 63.4317 36.1038 62.7237 36.5103 62.0161C36.5645 62.0442 36.6188 62.0728 36.673 62.1008C36.6415 62.8796 36.6715 63.5704 36.9985 64.1398C37.1338 64.2245 37.2696 64.3098 37.405 64.3946C40.3365 63.7955 43.9902 63.6692 45.4546 61.5061C45.9696 60.3733 46.4846 59.2404 46.9997 58.1082C50.9379 60.4596 55.5059 62.8489 59.0341 65.7541C62.9724 68.9976 65.4994 73.8819 68.1411 78.4968C69.7518 81.3114 71.99 84.7034 72.7757 88.1817H72.6946C69.8334 86.377 66.2076 85.8324 62.2869 85.0385C59.7505 84.5253 57.1982 84.5641 55.2125 83.5096C53.6148 82.6612 49.3144 76.4967 49.8459 73.6547C50.1739 71.9007 51.127 70.7209 52.0413 69.5767C53.419 69.6291 53.778 70.6621 55.2125 70.4262C56.6816 70.1844 59.2944 67.6257 58.5464 65.9235C55.8825 65.8086 50.8579 64.931 51.9602 68.982H52.0413C53.5068 68.4558 54.5539 67.4239 56.351 67.113V67.283C51.7738 68.1962 48.2182 72.2526 50.2525 77.8174C49.691 77.4488 49.2307 76.7909 48.8164 76.0067C48.3334 75.7849 47.8608 75.4594 47.3922 75.0752C48.8216 76.4357 49.9751 77.9831 50.9033 80.0264C51.2205 80.7242 52.544 82.7448 52.2857 83.2548C47.8659 81.5532 41.3846 77.9874 39.8447 73.4852C41.0018 72.5435 38.8276 70.1569 38.544 68.8131C38.5982 68.8411 38.6525 68.8697 38.7067 68.8978C39.0451 70.0344 40.1495 71.6924 40.9837 72.381C41.7699 72.0415 42.5257 71.3178 42.6099 70.2573C41.7033 68.6042 39.7553 65.2883 37.7309 65.3299C35.9684 68.5346 37.639 71.1845 39.0321 73.0605C39.9263 74.5894 40.821 76.1189 41.7152 77.6479C43.1786 78.9221 44.6426 80.1969 46.106 81.4706C44.6968 80.9044 43.2871 80.3378 41.8779 79.7716C41.2544 78.8374 40.6309 77.9027 40.008 76.9684C38.8426 75.8075 37.6767 74.6461 36.5113 73.4852C35.939 72.7178 34.5907 69.7041 33.9094 69.4073C34.52 71.0523 35.3805 72.5229 36.3486 73.8247C37.797 75.7725 40.1825 76.8896 41.0648 79.4316C40.306 78.4688 39.5472 77.506 38.7883 76.5431C36.2561 74.8107 32.3804 78.6491 31.4702 79.9411C31.5244 80.0544 31.5786 80.1678 31.6329 80.2811C33.7338 80.8084 37.0956 83.7487 39.7641 81.7253C40.3406 81.2882 41.2777 80.8591 40.9026 79.9411C39.1747 79.3782 36.999 78.6884 34.8857 78.4121C35.549 78.132 39.1251 78.744 39.8457 79.0069C40.6588 79.5449 41.4719 80.083 42.285 80.6211C45.1307 82.0087 47.977 83.3962 50.8227 84.7838C51.5831 85.1346 54.5028 86.0731 54.807 86.6528C52.3089 86.6652 50.1915 86.853 47.977 87.3323C46.9077 87.5638 45.4841 88.2384 44.1555 88.0117C41.2343 87.5136 39.0854 85.9075 36.4308 85.0385C34.2369 84.3202 31.7026 84.2128 29.9256 83.0848C28.3491 82.0831 27.6998 80.3831 26.429 79.0921C27.4038 81.5969 29.0526 82.4976 30.7387 84.1891C26.3303 83.2073 22.079 82.945 18.2167 81.4706C16.1458 80.6799 14.4865 79.0873 12.6062 78.2427C11.3608 77.683 10.1836 77.5464 9.10963 76.8832C5.19561 74.4669 6.9855 70.9665 0.652926 70.6815C0.566143 72.7944 2.64738 76.7909 5.20645 74.9289C5.23331 74.7022 5.26071 74.4756 5.28757 74.2494C4.6522 73.9931 3.73735 73.0599 3.4987 72.3805C5.53913 73.5808 6.98911 75.6705 8.94637 76.9679C10.1293 77.7521 11.5525 78.0257 12.8496 78.7521C14.5966 79.7306 16.2868 80.9811 18.2161 81.8106C21.8605 83.3773 26.1842 83.8776 30.5755 84.529V84.6143C27.0608 84.6262 24.137 83.9823 20.7365 83.4248C17.9909 82.9747 15.3678 84.0401 13.0929 84.4443C12.911 84.4767 12.7318 84.4983 12.5541 84.515C14.2592 84.4724 16.0305 84.1437 18.2967 83.7648C20.9219 83.3261 23.8338 84.0692 25.7776 84.5296C26.4553 84.6149 27.1331 84.6996 27.8103 84.7843H27.6476C26.726 84.8977 25.8045 85.011 24.8829 85.1243C22.0496 85.8589 19.6067 87.4871 18.5405 90.0518C18.351 91.4107 18.1609 92.7702 17.9713 94.1297C17.1856 94.6392 16.3994 95.1492 15.6132 95.6587C14.2851 96.2815 12.957 96.9049 11.6289 97.5277C11.2498 97.8671 10.8701 98.2071 10.4904 98.5472C9.09463 99.17 7.39464 98.9552 6.18071 99.5667C6.23495 99.4533 6.28916 99.34 6.3434 99.2266C7.44472 98.8564 8.58116 98.2719 10.0022 98.4619C9.86689 98.2638 9.73104 98.0652 9.5957 97.8671C6.6673 96.6026 5.81601 96.7375 4.0664 99.2261C3.70016 99.7474 3.17945 100.108 3.0095 100.84C3.14484 100.897 3.28069 100.954 3.41603 101.01C4.89806 100.889 6.80885 102.078 8.45721 101.35C9.72641 100.79 10.0193 99.245 10.978 98.3771C12.2648 97.2125 13.8956 96.8687 15.5316 95.9987C16.404 95.5351 17.0523 94.7957 18.1335 94.5545C18.1604 94.6111 18.1877 94.6678 18.2146 94.7245C18.0612 95.1972 17.9641 95.8568 18.1335 96.1687C20.91 94.6101 24.6598 93.8124 26.4274 91.1565C26.8443 90.53 27.7783 88.8283 27.1594 87.5033C26.8588 86.86 25.2673 86.7175 24.6386 87.1633C23.0223 88.3097 22.545 91.1468 20.9798 92.4302C21.6797 90.7027 24.6117 86.078 26.1836 85.3791C27.0747 84.9829 28.9354 85.0223 30.0052 85.2091C32.4 85.6273 34.2198 85.8475 36.1849 86.6533C38.1804 87.472 39.6985 88.4947 42.2018 88.8623V88.947C35.5144 88.9956 29.3843 96.1752 25.0451 99.2266C24.9367 99.1986 24.8282 99.17 24.7197 99.1419H24.8824C26.071 97.5233 27.987 96.4181 29.517 95.1492C30.1416 94.6311 30.3131 93.6267 30.8994 93.1103C32.0916 92.4874 33.2848 91.8641 34.4771 91.2413C33.2848 91.7507 32.0916 92.2608 30.8994 92.7702C29.951 92.9402 29.002 93.1103 28.0536 93.2803C26.3758 93.9462 23.1886 96.5087 24.557 99.5667H24.6381C25.869 99.4647 27.613 99.6136 28.6223 99.2266C30.5967 98.4705 30.9453 96.7883 32.119 95.234C33.1965 93.8065 35.1646 92.4491 36.6725 91.496C39.9893 89.3993 45.7981 89.6616 50.1703 88.6928V88.7776C50.1435 88.8342 50.1161 88.8909 50.0892 88.9476C46.9558 89.1327 44.5336 91.2429 42.0391 92.006C41.1718 92.1194 40.3044 92.2327 39.4371 92.346C37.4251 93.2193 35.6316 96.1169 36.5098 99.3972C37.0589 101.449 38.7579 102.538 39.8437 104.07H39.9248C41.63 101.831 44.4891 99.8532 45.2914 96.8487C45.8152 94.8864 44.5909 91.571 42.6078 92.4313C41.4801 93.0158 40.8257 96.0845 40.5751 97.5288H40.494C40.6557 90.5731 45.5099 91.0745 51.0645 89.8828C64.4596 87.0095 74.1922 90.9709 81.719 97.274C85.975 100.838 89.124 108.942 86.8418 116.898C84.7058 124.345 76.8246 134.265 82.0445 143.489C83.3338 145.767 85.0049 147.72 87.0045 149.266C89.6793 151.333 92.7193 152.347 96.6808 153.174C100.103 153.888 105.462 154.019 109.122 153.344C114.14 152.418 118.323 151.254 122.294 149.606V149.521C120.993 149.974 119.692 150.427 118.391 150.881C116.066 151.629 113.852 151.948 111.236 152.495C110.245 152.702 108.211 153.367 107.089 152.92C112.816 152.495 117.223 150.079 121.562 148.077C123.269 147.29 125.864 146.463 127.091 145.104C125.465 145.897 123.839 146.69 122.213 147.483C119.407 148.777 116.604 149.845 113.349 150.711C111.645 151.164 109.943 150.627 107.902 150.966C98.4423 152.536 89.0558 148.116 85.7849 142.555C84.8225 140.92 84.2951 139.038 83.8333 136.863C83.7791 136.07 83.7248 135.277 83.6706 134.485C83.7248 134.456 83.7791 134.428 83.8333 134.4C83.838 138.719 85.7327 142.197 88.0614 144.169C90.5796 146.302 92.897 148.068 96.5181 149.182C106.29 152.189 117.61 148.344 124.49 145.189C127.204 143.944 130.748 142.39 132.295 139.922C131.374 140.601 130.452 141.282 129.531 141.961C127.756 143.125 125.894 143.962 123.839 144.849C123.073 145.18 121.624 146.072 120.667 145.784V145.699C126.046 144.763 136.221 137.155 138.312 132.871C138.15 133.041 137.987 133.211 137.825 133.38C135.955 135.249 134.084 137.118 132.214 138.987C128.996 141.611 124.636 143.901 120.424 145.359V145.274C122.375 144.227 124.327 143.179 126.278 142.131C122.273 143.159 119.642 145.82 115.383 146.634C116.629 146.124 117.877 145.614 119.123 145.105C121.173 144.198 123.052 143.101 125.222 142.132C130.737 139.665 136.55 135.555 139.532 130.408C137.852 132.163 136.171 133.919 134.491 135.675C129.546 139.687 123.506 142.809 117.009 145.189C115.71 145.665 108.622 147.886 107.17 147.313C112.756 146.583 117.43 144.688 121.725 142.726C132.088 137.992 139.858 131.271 144.493 120.638C144.411 120.694 144.33 120.751 144.249 120.808C143.354 122.223 142.46 123.639 141.565 125.055C140.779 126.414 139.993 127.774 139.207 129.133C135.849 133.775 128.975 139.653 123.107 141.536C124.76 140.63 126.414 139.724 128.067 138.818C129.91 137.314 131.754 135.813 133.596 134.312ZM130.669 111.119C130.94 111.742 131.211 112.366 131.482 112.988H131.401C131.292 112.904 131.184 112.818 131.075 112.734C130.498 111.151 129.878 109.499 129.856 107.297C130.51 107.901 130.395 110.174 130.669 111.119ZM122.375 98.9714C122.173 97.5001 121.294 92.6564 120.505 91.9202C119.963 92.2316 119.421 92.543 118.879 92.8544C119.191 92.3007 119.957 92.0605 120.424 91.6649C121.147 91.9229 122.788 97.7722 122.375 98.9714ZM137.906 96.7624C138.041 96.791 138.177 96.8191 138.312 96.8471C139.717 97.6097 141.688 99.1921 142.622 100.5C141.317 99.9428 139.094 97.9573 137.662 97.0171C137.743 96.9324 137.824 96.8471 137.906 96.7624ZM137.418 97.7819C137.588 98.13 137.584 98.6594 137.418 98.8861V97.7819ZM120.261 80.7911C120.18 80.763 120.098 80.7344 120.017 80.7064C119.729 80.8057 119.653 80.7846 119.448 80.6216C119.719 80.6497 119.99 80.6783 120.261 80.7064V80.7911ZM128.636 80.7911C128.618 80.9158 128.67 80.8764 128.555 81.0459C128.582 80.9611 128.609 80.8764 128.636 80.7911ZM143.516 82.2353H143.435V82.0653C143.489 82.0373 143.544 82.0087 143.598 81.9806C143.679 82.0373 143.761 82.0939 143.842 82.1506C143.733 82.1787 143.625 82.2073 143.516 82.2353ZM144.167 82.0653C144.058 82.0373 143.95 82.0087 143.841 81.9806H144.167V82.0653ZM164.007 66.6041C164.102 67.0639 163.619 67.6878 163.194 67.8783C163.465 67.4536 163.736 67.0288 164.007 66.6041ZM162.706 68.0483L162.787 68.303H162.706V68.0483ZM161.568 62.6108C161.666 63.7949 161.787 65.0292 161.926 66.2635C161.763 64.9904 161.471 63.7232 161.486 62.6108H161.568ZM144.167 69.832C144.275 69.8039 144.384 69.7753 144.492 69.7473C147.792 69.6976 147.966 72.4425 148.964 74.7594C148.193 74.4059 147.865 72.1889 147.419 71.4462C146.4 69.7478 145.897 70.4095 144.167 69.832ZM142.053 74.6747C141.213 74.4481 140.372 74.2214 139.532 73.9952C140.372 74.1933 141.212 74.3919 142.053 74.59V74.6747ZM143.272 74.8442C143.218 74.9009 143.164 74.9575 143.11 75.0142C143.083 74.9575 143.055 74.9009 143.029 74.8442H143.272ZM138.475 58.2787C138.692 58.052 138.909 57.8254 139.125 57.5992C138.99 58.2506 138.854 58.9021 138.719 59.5529V62.3561C138.596 60.9664 138.426 59.8055 138.475 58.2787ZM137.906 58.0234C138.014 58.0801 138.123 58.1368 138.231 58.1934H138.068C137.993 58.5615 137.958 58.5923 137.743 58.7882H137.662C137.743 58.5334 137.824 58.2787 137.906 58.0234ZM137.58 59.3829H137.418V59.1282C137.584 59.2809 137.476 59.1293 137.58 59.3829ZM139.451 41.7974H139.37C139.343 41.6274 139.316 41.4574 139.289 41.2874C139.342 41.4574 139.397 41.6274 139.451 41.7974ZM134.328 62.1014C134.434 62.3324 134.364 62.2649 134.247 62.4414C134.274 62.3281 134.301 62.2147 134.328 62.1014ZM126.603 73.6552V74.08H126.522C126.549 73.938 126.576 73.7966 126.603 73.6552ZM127.66 56.1545H127.904V56.2392C127.741 56.2672 127.579 56.2959 127.416 56.3239C127.498 56.2678 127.579 56.2111 127.66 56.1545ZM123.188 60.9972V60.4877C123.724 58.9344 124.216 58.3365 125.015 57.6991C125.183 57.5409 125.373 57.3963 125.587 57.2646C125.798 57.1086 126.025 56.9419 126.278 56.7497H126.522V56.835C126.159 56.9559 125.854 57.1006 125.587 57.2646C125.38 57.4179 125.19 57.5604 125.015 57.6991C124.17 58.4989 123.843 59.6263 123.188 60.9972ZM118.716 58.5334C118.743 58.5901 118.77 58.6468 118.797 58.7034H118.634C118.662 58.6468 118.689 58.5901 118.716 58.5334ZM121.074 56.8345C121.008 57.5739 120.15 58.7623 119.366 59.0429C119.919 58.2803 120.61 57.7136 121.074 56.8345ZM119.041 59.2129C118.678 59.5664 117.361 59.9582 116.683 59.6377C117.415 59.4963 118.147 59.3543 118.879 59.2129H119.041ZM109.772 48.6786C110.043 48.4238 110.313 48.1685 110.585 47.9138C112.243 48.5188 115.029 47.5792 116.358 48.0838C114.471 48.2824 111.384 48.3553 109.772 48.6786ZM123.92 46.7249V46.8096C123.703 46.7529 123.486 46.6963 123.269 46.6396C123.486 46.6682 123.703 46.6962 123.92 46.7249ZM124.571 45.1106C124.49 45.1387 124.408 45.1673 124.327 45.1954C124.048 44.9957 124.142 45.0939 124.083 44.8553C124.507 44.8915 124.406 44.8003 124.571 45.1106ZM112.617 21.0687C112.405 19.4512 111.989 18.8802 111.398 17.5855C112.119 18.109 113.585 19.9111 112.617 21.0687ZM90.6634 18.945C90.528 18.3789 90.3921 17.8122 90.2568 17.246C90.623 17.6422 90.7445 18.3405 90.8261 19.0303C90.7718 19.0017 90.7176 18.9731 90.6634 18.945ZM91.3953 22.7677V22.5129C91.4222 22.5977 91.4496 22.683 91.4764 22.7677H91.3953ZM88.2241 26.1662V26.2509C88.5186 26.4894 88.6255 26.7242 88.7934 27.1004V27.3551H88.7123V27.1851C88.5495 26.8737 88.3868 26.5623 88.2246 26.2509H88.1435C88.0893 26.2228 88.035 26.1942 87.9808 26.1662C87.9539 26.0814 87.9266 25.9961 87.8997 25.9114C88.0072 25.9961 88.1156 26.0809 88.2241 26.1662ZM82.6948 31.7731V31.8578C81.9902 31.6597 81.2851 31.4611 80.5805 31.2631C81.2851 31.4331 81.9902 31.6031 82.6948 31.7731ZM59.2769 17.9255V17.416C59.4138 17.6805 59.4329 17.7544 59.2769 17.9255ZM63.1795 19.0297C62.4207 18.7183 61.6618 18.4069 60.903 18.095C61.6835 18.1592 62.7306 18.5634 63.1795 19.0297ZM65.7819 27.6104C65.7277 27.5818 65.6735 27.5537 65.6192 27.5256C64.6817 24.7084 62.821 23.3954 61.7977 21.2393C63.5566 22.3214 65.3935 25.2465 65.8631 27.6109H65.7819V27.6104ZM52.8528 17.246C52.5558 17.1683 52.6865 17.2493 52.5274 17.076C52.6359 17.1041 52.7444 17.1327 52.8528 17.1608V17.246ZM58.5449 38.909C58.8874 37.7508 59.5465 37.5619 60.4965 37.04C61.6448 36.9952 62.9548 37.0918 63.5865 37.6347C60.499 37.4933 60.4598 37.0017 58.5449 38.909ZM29.1911 54.9655C29.3564 55.6212 28.8367 57.0957 29.3538 57.7692V57.5992C29.4349 57.0898 29.5165 56.5797 29.5976 56.0703H29.6787C29.6539 57.1675 29.7986 57.8928 30.0041 58.6187C30.1669 58.7035 30.3296 58.7887 30.4918 58.8735C30.6003 58.8454 30.7088 58.8168 30.8172 58.7887C30.7573 57.7563 30.6209 56.7854 30.8172 55.8155C30.8715 55.8441 30.9257 55.8722 30.98 55.9003C30.7961 57.6527 31.3705 58.3866 31.7119 59.5535C29.5868 58.5772 28.2861 58.3224 29.1911 54.9655ZM30.3296 50.6328C30.7904 51.0289 31.2512 51.4256 31.7119 51.8223C31.1034 51.6097 30.67 51.125 30.3296 50.6328ZM32.1185 54.116C32.0642 55.2488 32.01 56.3817 31.9557 57.5139C32.01 57.542 32.0642 57.5706 32.1185 57.5987C32.4439 57.4287 32.7688 57.2587 33.0942 57.0887C33.257 56.6639 33.4197 56.2392 33.5824 55.8144H33.7451C33.5612 56.6715 32.5844 58.8308 31.8752 59.1277C31.8338 56.9861 31.7667 56.1329 32.1185 54.116ZM40.6562 56.9192H40.5751C38.139 55.7767 35.4291 55.238 33.9073 53.1813C35.1238 53.7107 35.9555 54.6822 36.9974 55.305C38.217 55.7864 39.4372 56.2678 40.6562 56.7492V56.9192ZM32.8504 69.1525V69.2373C32.7419 69.2092 32.6335 69.1806 32.525 69.1525H32.8504ZM30.8177 67.1988H30.7367C30.8069 66.7314 30.9092 66.6931 31.1432 66.4341C31.1974 66.5474 31.2517 66.6608 31.3059 66.7741C31.1427 66.9155 30.9799 67.0569 30.8177 67.1988ZM38.7047 59.2129C38.6468 59.6846 38.0946 60.5584 37.6478 60.9119C38.0001 60.3457 38.3524 59.7791 38.7047 59.2129ZM42.2013 63.1209C40.7378 63.3475 39.2739 63.5742 37.8105 63.8003C38.5693 62.959 40.8784 63.5278 41.9575 63.0356H42.2013V63.1209ZM37.3223 63.9704H37.2412V63.8003C37.1059 63.1489 36.97 62.4975 36.8347 61.8466C37.0863 61.4521 37.1462 61.3097 37.5667 61.0819C37.5398 61.7047 37.5124 62.3281 37.4856 62.9509C39.3571 61.6772 41.8955 61.423 43.3398 59.7229C43.1037 61.3944 38.4768 62.3529 37.3223 63.9704ZM45.5352 57.2592C45.5621 57.1745 45.5894 57.0892 45.6163 57.0045C45.8632 57.0789 45.638 57.1259 45.5352 57.2592ZM52.609 67.5383H52.5279C52.5548 67.3969 52.5822 67.255 52.609 67.1136V67.5383ZM53.0156 66.7735C52.9071 66.8869 52.7986 67.0002 52.6901 67.1136C52.7444 67.0002 52.7986 66.8869 52.8528 66.7735H53.0156C53.0424 66.7169 53.0698 66.6602 53.0967 66.6035C53.0626 66.6829 53.1623 66.6613 53.0156 66.7735ZM55.6991 69.832H55.5364C54.7987 70.2066 53.5337 69.7975 53.0972 69.3225C53.9604 69.4251 54.9806 69.5201 55.6991 69.832ZM41.7947 71.1062H41.9575C41.8221 71.2476 41.6863 71.3896 41.5509 71.531C41.632 71.3896 41.7131 71.2482 41.7947 71.1062ZM36.5909 76.7984C36.4824 76.7698 36.3739 76.7418 36.2654 76.7137H36.5909V76.7984ZM4.55352 74.7594V74.5047H4.71624L4.55352 74.7594C4.52666 74.8161 4.49929 74.8728 4.47243 74.9295C4.20123 74.8728 3.93053 74.8161 3.65934 74.7594H4.55352ZM6.50511 97.4419C7.70664 97.4133 8.29552 97.743 9.10704 98.0366V98.2066C7.61572 97.9427 6.89305 97.4694 5.61042 98.2066C5.82015 97.7867 6.16624 97.7123 6.50511 97.4419ZM20.816 94.2986C20.6807 94.3267 20.5448 94.3553 20.4095 94.3834C20.4637 94.3267 20.518 94.2701 20.5722 94.2134C20.7075 94.2415 20.8434 94.2701 20.9787 94.2981L20.816 94.2986ZM25.6133 85.5486H25.4506C25.0756 85.8632 23.5213 86.3624 23.0925 86.228C23.7429 85.9733 24.3937 85.7186 25.0441 85.4633H25.6133V85.5486ZM30.1669 93.1944H30.4107C30.3838 93.2511 30.3564 93.3078 30.3296 93.3645C29.8419 93.4211 29.3538 93.4778 28.8662 93.5345C29.2996 93.4211 29.7335 93.3078 30.1669 93.1944ZM27.2395 94.2139H27.4022C27.5376 94.1006 27.6734 93.9872 27.8087 93.8739H28.0526C28.0257 93.9306 27.9983 93.9873 27.9715 94.0439C27.7819 94.1006 27.5918 94.1573 27.4022 94.2139C26.771 94.9317 25.9724 95.6749 25.2879 96.3376C25.6304 95.3252 26.5458 94.8632 27.2395 94.2139ZM40.1686 92.6844C40.2497 92.6278 40.3313 92.5711 40.4124 92.5144C40.602 92.543 40.7921 92.5711 40.9817 92.5991C40.7105 92.6283 40.4393 92.6564 40.1686 92.6844ZM99.9331 86.1433C99.9599 86.0586 99.9873 85.9733 100.014 85.8886C100.261 85.963 100.036 86.0105 99.9331 86.1433ZM111.235 66.7735V67.283H111.154C111.181 67.1136 111.208 66.9435 111.235 66.7735ZM111.073 67.8783H110.992V67.6236C111.019 67.7083 111.045 67.7936 111.073 67.8783ZM108.959 61.8466C108.904 61.8747 108.85 61.9033 108.796 61.9314C108.742 61.8466 108.687 61.7614 108.633 61.6766C108.525 59.5529 108.416 57.4287 108.308 55.305C109.118 56.8237 108.787 59.7996 108.959 61.8466ZM107.251 53.0965C107.357 53.3275 107.287 53.2601 107.17 53.4365C107.197 53.3227 107.224 53.2093 107.251 53.0965ZM89.6064 52.9265C92.7844 52.2109 98.6257 52.4419 101.641 53.3513C102.86 53.8607 104.081 54.3708 105.3 54.8802C105.056 54.5688 104.812 54.2574 104.568 53.9455C103.972 53.6621 103.375 53.3793 102.779 53.096C101.939 52.8979 101.098 52.6993 100.258 52.5012C101.815 52.4953 105.781 53.0291 106.6 53.7755C106.195 54.6768 105.378 55.0286 105.137 56.1539C104.216 60.4526 107.938 61.3674 108.634 64.1398C108.579 64.1118 108.525 64.0832 108.471 64.0551C107.581 62.0928 103.027 60.0721 101.234 58.7029C101.463 53.6508 98.4619 53.4624 93.6723 53.3507C92.3194 53.3194 90.8348 53.1532 89.4442 53.266C89.498 53.1532 89.5522 53.0399 89.6064 52.9265ZM100.665 57.4292C100.649 54.8727 97.6866 53.6589 94.7287 54.2008C94.0345 54.3281 92.9047 54.7696 92.2079 54.5407C92.9667 54.3707 93.7255 54.2008 94.4849 54.0307C98.5921 53.9552 98.9377 54.2132 100.827 56.4092C100.847 56.8577 100.836 57.2042 100.665 57.4292ZM70.742 74.5047H70.4982C69.0998 70.5568 64.381 66.6181 61.31 64.2251C60.3565 63.4825 57.7158 61.7506 58.3827 59.8077C59.1389 58.7973 60.7744 58.5604 61.5539 57.5139C63.8526 54.4269 62.9941 52.1801 62.0415 48.5938C62.1226 48.5658 62.2042 48.5372 62.2853 48.5091C65.3429 49.6678 70.3303 52.5417 72.9374 48.6791C73.5093 47.8318 73.8083 46.8441 73.425 45.8754C73.8316 45.8187 74.2381 45.762 74.6447 45.7054C78.9869 45.5726 78.1738 50.3759 77.2466 53.5213C75.1266 60.7127 70.1366 64.1263 70.742 74.5047ZM77.3282 91.8349C76.6236 90.4474 75.9185 89.0598 75.2139 87.6723C73.4979 83.3741 72.831 77.7629 73.1812 71.7857V75.1837C73.4524 77.5621 73.7231 79.9411 73.9943 82.3201C74.4654 84.447 75.0817 86.5653 75.8643 88.4365C76.4061 89.5973 76.9485 90.7588 77.4904 91.9197C77.4367 91.8916 77.3825 91.8635 77.3282 91.8349ZM87.1667 95.4034C83.0161 88.4715 71.8082 79.6885 76.3524 67.3688C77.3246 64.7329 78.7808 62.4565 80.3367 60.4024C81.5832 59.2415 82.8307 58.0801 84.0771 56.9192C81.1973 58.3618 78.4182 60.3927 76.5151 62.8661C75.8648 63.7723 75.2139 64.6784 74.5635 65.5846C75.9004 61.1364 82.0899 57.2403 86.1914 55.475C87.2757 55.1916 88.36 54.9088 89.4437 54.6255C90.1333 54.598 91.3927 54.4744 91.8019 54.7955C93.8934 56.0357 94.0138 61.2713 98.3881 60.1477C99.12 59.8363 99.8515 59.5249 100.583 59.2129C100.529 59.0715 100.475 58.9296 100.421 58.7882C99.0384 57.9387 97.6561 57.0892 96.2737 56.2397C98.4335 56.8188 99.9719 58.3068 101.64 59.3829C105.313 61.7527 110.707 64.0475 109.365 70.512C109.419 70.4834 109.474 70.4554 109.528 70.4273C110.538 67.7374 108.394 65.1836 109.04 62.2719C109.537 61.8801 109.954 61.4295 110.666 61.2524C112.366 66.1394 109.195 72.8781 106.763 74.76C107.029 73.8468 107.609 72.9007 107.82 71.7868C108.153 70.0295 107.258 68.3991 106.763 67.3694C106.411 66.4352 106.059 65.5004 105.706 64.5662C104.785 63.2013 100.764 63.1209 98.7135 63.7167C99.4966 65.2505 100.966 68.2102 102.535 68.8989C103.614 69.3722 105.653 69.0662 105.869 68.0494C104.751 67.2598 103.072 66.7374 102.21 65.6709C103.592 66.4071 104.975 67.1438 106.357 67.8799V67.6252C105.607 65.8836 105.374 64.9969 103.836 64.0573C103.863 64.0292 103.89 64.0006 103.917 63.9725C106.243 64.8074 108.349 70.0716 107.089 73.3174C105.818 76.5879 102.546 78.5028 100.583 81.1333C99.3943 82.727 98.2408 84.7093 96.5181 85.7207C97.1876 84.2851 98.5353 83.1901 99.2011 81.558C101.852 75.0638 97.6912 71.851 94.0783 69.6647C92.9848 69.003 91.696 68.7596 90.9072 67.7957C93.4301 68.6431 95.5686 70.4915 97.6561 71.7884C99.9687 71.09 98.0249 66.7525 97.3306 65.842C95.4483 63.3724 91.5245 63.4981 87.8982 64.1431C86.6532 64.3643 85.8489 63.4069 85.2146 63.6336V63.7183C86.0452 67.3435 88.2453 73.3039 91.7197 74.0827C94.0117 74.5965 96.4856 72.7906 97.7367 73.2332C100.065 74.2969 99.5607 78.1363 98.6314 80.2843C96.4039 85.4298 90.8369 86.9955 89.2805 93.0271C88.7831 94.9544 88.9675 97.8925 89.4432 99.6535C89.8002 100.976 91.2083 103.559 90.7444 105.09V104.92C90.5006 103.958 90.2563 102.995 90.0125 102.032C89.2526 99.68 88.3398 97.362 87.1667 95.4034ZM109.446 151.218C109.907 151.246 110.368 151.275 110.828 151.303C109.997 151.405 108.026 151.921 107.332 151.387C108.037 151.331 108.742 151.274 109.446 151.218ZM120.586 146.12H120.993C120.966 146.177 120.939 146.234 120.912 146.29C120.099 146.404 119.286 146.517 118.473 146.63C119.017 146.216 119.854 146.418 120.586 146.12ZM23.7434 85.1238H23.4996C21.064 86.1832 17.4005 86.2966 15.9376 88.3517C16.9676 87.8423 17.9976 87.3322 19.0277 86.8228C20.5009 86.2259 22.5672 86.0855 23.7434 85.1238ZM117.74 148.754H117.334C115.383 149.377 113.43 150 111.479 150.623C113.507 150.653 116.484 149.778 117.74 148.754ZM129.856 140.004C129.775 140.117 129.693 140.231 129.612 140.344C129.944 140.136 129.916 140.198 129.856 140.004ZM160.754 97.1024L160.836 96.8477C161.103 96.152 160.636 95.738 159.941 95.7434C159.86 95.8568 159.779 95.9701 159.698 96.0834C159.724 96.2248 159.752 96.3668 159.779 96.5082C159.968 96.7062 160.158 96.9049 160.348 97.1029H160.754V97.1024ZM160.185 96.0829C160.475 96.2691 160.499 96.2642 160.592 96.6776C160.158 96.56 160.124 96.4769 160.185 96.0829ZM150.265 105.173C152.325 102.228 154.385 99.2828 156.445 96.3376C156.821 95.6851 157.441 94.1092 157.177 93.1944C156.969 92.7168 156.624 92.6407 156.201 92.8544C155.825 94.0094 154.243 95.7985 153.192 96.2524C154.174 94.9074 155.844 93.9689 156.283 92.0897C155.535 91.4885 155.04 91.2121 153.599 91.2402C149.961 93.0331 149.49 95.14 147.989 99.0561C148.043 99.1128 148.097 99.1694 148.151 99.2261C153.002 98.1667 154.915 99.8651 156.445 94.8087H156.526C156.349 96.4844 155.252 97.3933 154.494 98.4619C153.084 100.698 151.674 102.936 150.265 105.173ZM157.664 100.246C157.188 102.152 158.289 105.113 157.502 107.042C157.531 105.735 157.383 100.982 156.851 100.416C155.637 100.825 155.113 101.511 154.575 102.625C152.709 106.486 156.459 108.605 157.177 111.375C157.82 111.14 158.24 110.112 158.64 109.59C159.493 108.48 160.683 107.619 161.242 106.193C162.432 103.157 160.203 100.286 157.664 100.246ZM45.8601 70.2568V70.3415C46.5709 72.2499 47.6071 73.8663 48.5628 75.5042C47.6908 73.6752 46.9981 71.3756 45.9412 70.2568H45.8601ZM115.382 67.1988C115.974 67.5005 116.763 68.1244 117.821 67.7083C118.927 67.2738 120.664 64.5327 119.691 62.8661H118.39C116.051 63.8106 114.53 63.6843 115.3 66.9441C115.077 67.2647 114.854 67.5858 114.63 67.9069C114.868 67.656 115.116 67.4179 115.382 67.1988ZM116.683 67.2836C117.084 66.9533 117.787 66.9711 118.147 66.6041H118.309C117.959 67.1011 117.543 67.303 116.683 67.2836ZM118.553 63.4603H118.716C117.74 64.5646 116.764 65.6693 115.789 66.7735C115.497 66.6219 115.692 66.8189 115.545 66.5188C115.973 66.2597 115.985 65.8933 116.277 65.4993C117.036 64.8198 117.794 64.1404 118.553 63.4603ZM117.822 63.3756H118.066V63.4603C117.849 63.517 117.632 63.5737 117.415 63.6303C117.551 63.5456 117.686 63.4603 117.822 63.3756ZM115.382 65.7546C115.714 64.6644 116.008 64.4037 116.764 63.8009H117.008V63.8856C116.031 64.2812 115.698 65.0897 115.463 66.2641H115.382V65.7546ZM104.568 111.205C104.676 111.177 104.785 111.148 104.893 111.12C105.029 110.922 105.164 110.723 105.3 110.525C105.592 110.667 105.597 110.729 105.869 110.525C105.692 110.16 105.533 109.633 105.3 109.421C105.11 109.393 104.92 109.364 104.73 109.336C104.513 109.506 104.297 109.676 104.08 109.846V110.016C104.297 110.157 104.514 110.299 104.73 110.44C104.58 110.777 104.536 110.828 104.568 111.205ZM167.015 71.9557C166.907 72.041 166.798 72.1257 166.69 72.2105C166.744 72.4652 166.798 72.7199 166.853 72.9752H167.178C167.286 72.8905 167.395 72.8052 167.503 72.7205C167.477 72.5224 167.449 72.3238 167.422 72.1257C167.286 72.0691 167.151 72.0124 167.015 71.9557ZM164.088 113.074L163.926 112.819C164.034 112.706 164.143 112.592 164.251 112.479C164.111 112.145 164.073 111.973 163.763 111.799C163.709 112.026 163.655 112.253 163.601 112.479H162.869V112.819C162.896 112.876 162.923 112.932 162.95 112.989C163.486 112.917 163.37 112.803 163.682 112.564C163.601 112.932 163.519 113.3 163.438 113.668C163.903 113.537 164.214 113.526 164.658 113.244V112.904C164.631 112.847 164.603 112.79 164.577 112.734C164.254 112.843 164.3 112.893 164.088 113.074ZM170.431 80.1964H170.105C169.807 80.4797 169.509 80.7625 169.211 81.0459C169.238 81.1306 169.265 81.2158 169.292 81.3006H170.593V81.3853C170.35 81.4701 170.105 81.5553 169.862 81.64V81.7248C169.916 81.8381 169.97 81.9515 170.024 82.0648H170.431C170.62 81.7815 170.81 81.4987 171 81.2153V80.9606C170.49 80.7468 170.502 80.7258 170.431 80.1964ZM161.405 87.5023C161.378 87.6437 161.351 87.7856 161.324 87.927C162.41 89.1769 163.67 91.1862 163.926 93.1939C163.871 93.1658 163.817 93.1372 163.763 93.1092C163.474 91.598 162.276 89.2784 161.242 88.4365C161.134 88.4931 161.025 88.5498 160.917 88.6065C159.803 89.1467 159.664 91.2402 160.347 92.4291C161.088 93.7179 164.996 96.1989 166.364 96.3371C166.245 91.3147 166.123 88.0241 161.405 87.5023ZM112.13 126.496C112.455 126.326 112.78 126.156 113.105 125.986V125.562C112.733 125.191 112.647 124.923 112.292 124.627C111.967 124.882 111.642 125.137 111.317 125.392V125.646C111.607 125.767 111.629 125.777 111.967 125.731C111.863 126.124 111.885 126.26 112.13 126.496ZM136.523 77.0532C136.605 77.1379 136.686 77.2232 136.767 77.3079C136.848 77.2512 136.93 77.1946 137.011 77.1379C136.957 76.9965 136.903 76.8546 136.848 76.7132C136.767 76.6845 136.686 76.6565 136.605 76.6284C136.578 76.7698 136.55 76.9118 136.523 77.0532ZM110.015 73.2305C111.316 72.3367 112.217 71.0355 113.138 69.7683C112.017 70.858 110.6 71.8845 110.015 73.2305ZM131.401 84.7838C130.43 85.5761 130.006 86.7737 129.286 87.8423C128.799 88.3517 128.311 88.8617 127.823 89.3712H128.229C129.231 88.7533 129.628 87.5659 130.506 86.8228C133.476 88.0425 135.796 86.1967 137.012 84.1043C137.76 82.8171 137.444 80.3307 136.199 79.8569C136.009 79.8288 135.819 79.8002 135.629 79.7722C132.657 81.1187 130.056 80.0431 129.45 83.9348V86.0585C129.504 86.1433 129.558 86.2286 129.612 86.3133H129.693C130.771 84.9851 132.051 84.0093 133.352 82.9154C134.003 82.2073 134.654 81.4992 135.304 80.7916C135.23 80.4813 135.307 80.6179 135.141 80.4516V80.2816C135.331 80.2536 135.521 80.225 135.71 80.1969C136.854 80.3896 137.486 82.4971 136.686 83.5948C136.88 82.4151 136.834 81.2299 135.954 80.3669C135.547 80.463 135.536 80.552 135.304 80.7916C134.68 82.5403 132.721 83.706 131.401 84.7838ZM129.775 85.5486V85.1238C129.942 85.2906 129.859 85.1556 129.937 85.4638C129.883 85.4919 129.829 85.5205 129.775 85.5486ZM129.856 84.6991C129.829 84.5857 129.801 84.4724 129.775 84.359C130.036 83.3109 130.245 82.6509 130.588 81.8953C130.595 81.9142 130.128 84.1415 129.856 84.6991ZM114 68.8125C114.21 68.5103 114.42 68.2081 114.631 67.9058C114.09 68.4779 113.611 69.118 113.139 69.7678C113.458 69.458 113.755 69.1423 114 68.8125ZM120.83 77.7326H117.659C117.632 77.7893 117.605 77.846 117.578 77.9026C118.45 78.0084 120.297 78.5708 120.83 77.7326ZM111.967 80.6211C111.94 80.7058 111.913 80.7911 111.886 80.8758C111.997 80.694 112.034 80.8305 111.967 80.6211ZM142.622 107.551C142.649 107.863 142.676 108.174 142.703 108.486C142.812 108.458 142.92 108.43 143.029 108.402C143.018 108.03 142.995 107.921 142.866 107.722C142.719 107.548 142.864 107.662 142.622 107.551ZM121.155 78.6674C120.419 79.308 118.465 78.6928 117.821 79.4321C117.957 79.6021 118.092 79.7722 118.228 79.9416C119.204 79.9697 120.179 79.9983 121.155 80.0264C121.083 79.5109 121.25 78.8142 121.155 78.6674ZM116.683 109.505H116.277C115.937 110.119 115.782 110.345 116.196 110.949C116.385 110.977 116.575 111.006 116.765 111.034C116.928 110.893 117.09 110.751 117.252 110.609C117.166 110.299 117.186 110.36 117.009 110.185C116.749 110.412 116.742 110.561 116.358 110.695C116.494 110.355 116.63 110.015 116.765 109.675C116.737 109.619 116.71 109.562 116.683 109.505ZM22.1172 83.0848C20.0313 82.8641 17.8349 82.502 15.2872 82.4901C15.1787 82.5181 15.0703 82.5467 14.9618 82.5748V82.6601C17.6066 82.6396 19.7607 83.2116 22.1984 83.2548C22.1715 83.1982 22.1441 83.1415 22.1172 83.0848ZM45.6163 73.5699C45.8958 73.7831 46.1659 73.999 46.4283 74.2176C45.2753 73.1312 44.1172 71.9044 42.8517 71.2762C43.5526 72.3157 44.6359 72.8214 45.6163 73.5699ZM6.26127 87.5023V87.587C6.79488 87.6156 7.51654 87.6512 7.80633 87.417H6.50562C6.424 87.4461 6.34237 87.4742 6.26127 87.5023ZM5.69202 95.1482C10.6423 93.5199 14.6643 94.2015 15.7749 88.437C13.7293 88.056 13.0794 86.3532 10.571 86.3133C9.75791 86.6533 8.94484 86.9928 8.13177 87.3328C6.46585 88.7765 5.88934 92.6769 5.28599 95.1487L5.69202 95.1482ZM10.6521 86.738C11.0044 86.7661 11.3567 86.7947 11.709 86.8228V86.908C11.1129 86.9647 10.5162 87.0214 9.9201 87.0781C10.1639 86.9647 10.4083 86.8514 10.6521 86.738ZM13.7417 88.1823C13.9044 88.2103 14.0671 88.2389 14.2293 88.267C14.2562 88.3517 14.2835 88.437 14.3104 88.5217H14.1477C13.0908 88.8617 12.0334 89.2012 10.9765 89.5412C10.0549 90.164 9.13337 90.7874 8.21182 91.4102C9.47017 89.5293 11.7312 89.3103 13.7417 88.1823ZM5.85474 83.9343C5.8816 83.7643 5.90897 83.5943 5.93583 83.4248C5.82735 83.2268 5.7189 83.0282 5.61042 82.8301C4.25547 82.1506 2.89998 81.4706 1.54503 80.7911C3.49919 81.143 4.76634 82.7216 6.5862 82.8301C6.15849 79.7619 3.61854 79.6863 0.162719 79.7716C0.10848 79.7997 0.0542393 79.8283 0 79.8564C0.532578 82.7373 2.45936 85.147 5.85474 83.9343ZM11.709 105.682C11.68 102.191 13.4338 98.6724 15.2867 97.0171C16.0068 96.3744 17.6102 95.6663 17.9703 94.7234H17.8076C15.1039 97.1542 13.0789 98.5358 11.8717 102.624C11.6351 103.426 10.8344 110.503 10.7332 110.61C10.7601 109.194 10.7874 107.778 10.8143 106.363C10.5973 106.249 10.3804 106.136 10.1639 106.023C5.84856 107.286 9.19744 113.383 10.977 114.858C11.0581 114.801 11.1397 114.745 11.2208 114.688C11.8701 112.855 15.4592 110.789 13.8227 107.891C13.1187 107.155 12.4136 106.419 11.709 105.682ZM8.45667 109.42V108.826C8.59201 108.514 8.72789 108.202 8.86323 107.891C8.72789 108.401 8.59201 108.911 8.45667 109.42ZM8.94432 107.891C8.97118 107.807 8.99855 107.721 9.02541 107.637C9.00785 107.761 9.05952 107.721 8.94432 107.891ZM16.669 118.765C16.3653 119.115 16.2238 119.301 15.6932 119.445C15.8121 120.002 15.9355 120.21 16.0187 120.804C16.6628 120.58 16.7672 119.642 16.9945 119.02C16.886 118.935 16.7775 118.851 16.669 118.765ZM1.30122 98.2913V98.3761C1.32808 98.4327 1.35548 98.4894 1.38234 98.5461H1.70775C1.95157 98.2913 2.19593 98.0366 2.43975 97.7813V97.5266C2.33127 97.498 2.22279 97.4699 2.11431 97.4413C1.84311 97.7252 1.5719 98.0085 1.30122 98.2913ZM22.7676 100.076C22.1885 98.6265 21.0071 97.981 18.9461 98.0366C18.3226 98.2347 17.6991 98.4333 17.0761 98.6313C15.0331 99.9439 14.4804 102.738 13.0107 104.663C13.065 104.748 13.1192 104.833 13.1734 104.918C19.2477 104.436 21.3238 105.13 23.6628 100.585C23.6086 100.528 23.5543 100.472 23.5001 100.415C22.2164 101.054 20.1088 101.636 18.6211 101.944C19.2312 101.442 22.764 100.48 22.7676 100.076ZM13.9044 104.238V104.068H14.0671C14.0129 104.125 13.9586 104.182 13.9044 104.238ZM22.3611 101.69C22.3363 102.417 20.6559 104.199 19.6775 103.814C20.8181 103.573 21.7975 102.564 22.3611 101.69ZM5.77314 69.9173C5.82738 69.8887 5.88159 69.8606 5.93583 69.832C5.88159 67.6236 5.82738 65.414 5.77314 63.2056C6.0836 65.6558 5.77055 70.715 7.07436 72.2105C6.89305 71.4311 6.45241 70.5315 6.74892 69.8315C7.47211 69.5762 7.86985 69.0435 8.29395 68.4725C10.5451 65.4421 8.69225 62.8159 6.83055 60.8266C6.43228 60.4013 6.21273 59.7629 5.61093 59.5524C3.24816 64.1053 0.738701 65.9478 5.77314 69.9173ZM16.2625 65.0746C16.6546 64.7054 17.057 64.4107 16.9128 63.7156C15.4949 63.7496 14.1606 63.8063 12.6848 63.8003C13.4198 63.2277 16.2083 63.3794 16.9945 63.5456C16.6163 62.0474 14.8507 61.8148 13.3356 61.4219C11.6356 62.0933 10.4888 62.3545 9.51408 63.7156C9.54094 63.8003 9.56834 63.8856 9.5952 63.9704C11.2875 65.1447 14.2164 66.9997 16.2625 65.0746ZM35.2896 56.0697C35.3418 56.3784 35.3222 56.3272 35.4524 56.4945C35.5066 56.4097 35.5608 56.3245 35.6151 56.2397C35.5066 56.1831 35.3981 56.1264 35.2896 56.0697ZM25.2884 71.7863C28.4338 72.6298 31.2315 72.9871 33.9073 74.08C35.3041 74.6504 36.4875 75.6381 38.0543 75.9489C37.9458 75.8075 37.8374 75.6656 37.7289 75.5242C36.9969 75.0995 36.2655 74.6747 35.5335 74.25C33.524 73.373 30.934 73.1587 29.2722 71.8715C26.7395 69.9087 28.2044 67.6273 23.0925 67.6241C21.6373 68.2124 17.6082 68.8578 16.7501 69.7478C16.8044 69.8045 16.8586 69.8611 16.9128 69.9178C17.855 72.0448 21.2143 74.8787 23.7429 75.44C26.0891 75.9608 29.188 74.7508 28.8656 72.6368C26.4879 72.8295 23.9882 71.5493 21.954 70.9379V70.8531C23.0657 71.1629 24.1773 71.4748 25.2884 71.7863ZM22.6049 68.133C22.9029 68.1617 23.201 68.1897 23.4996 68.2178C22.9846 68.2458 22.4695 68.2744 21.9545 68.3025C22.1715 68.2464 22.3879 68.1897 22.6049 68.133ZM5.69202 49.6133H6.01746C6.26128 49.33 6.50561 49.0472 6.74943 48.7638C6.72256 48.6791 6.6952 48.5938 6.66833 48.5091C5.90898 48.4152 6.221 48.0897 5.69256 47.8296C5.45545 48.283 5.10729 48.4281 4.96059 48.9338C5.34439 49.1422 5.48436 49.2107 5.69202 49.6133ZM21.2225 44.6859C21.0128 48.0563 16.7687 51.5066 20.9787 54.965C21.5785 55.4577 24.2093 55.9774 24.4754 56.3245C25.5911 58.3726 26.367 60.2551 28.5407 61.1666C31.6561 62.4732 36.0118 59.2086 36.2654 56.7492H36.1843C36.1032 56.8059 36.0216 56.8625 35.9405 56.9192C34.7653 60.0262 30.3456 62.545 27.0773 59.8924C24.542 57.8345 23.3126 53.3658 22.7676 49.2733H22.8487C23.3229 51.3301 23.8059 53.7836 24.6376 55.5597H24.963C29.4075 51.1158 25.7575 47.8183 22.7676 44.9406V44.8559C24.4718 44.9271 25.8546 44.6146 26.3453 43.4117C25.3824 40.3667 24.8736 38.6391 20.816 38.7395C19.5695 38.9662 18.322 39.1928 17.0756 39.419V39.6737C17.8886 40.8913 18.7017 42.1094 19.5148 43.3264C20.0841 43.7797 20.6533 44.2331 21.2225 44.6859ZM26.3453 49.8681H26.2642V49.698C25.4243 48.5652 24.5838 47.4324 23.7434 46.3001C24.8008 46.7599 26.0431 48.6473 26.3453 49.8681ZM25.8577 43.7517C25.8308 43.8083 25.8035 43.865 25.7766 43.9217H25.4512C24.2047 42.75 22.5837 42.2141 21.2231 41.1179C23.3451 41.3457 24.1995 43.1137 25.8577 43.7517ZM36.2654 58.3634C36.2386 58.3348 36.2112 58.3068 36.1843 58.2787C36.1032 58.4201 36.0216 58.562 35.9405 58.7034C36.0485 58.5901 36.157 58.4768 36.2654 58.3634ZM17.1572 119.53C17.0761 119.643 16.9945 119.757 16.9134 119.87C16.7641 120.18 16.7393 120.641 16.8323 120.974H16.9134C17.0218 120.946 17.1303 120.918 17.2388 120.89C17.2559 120.24 17.3938 120.219 17.6453 119.87C17.5911 119.757 17.5369 119.643 17.4826 119.53H17.1572ZM12.3598 77.8179C12.441 77.846 12.5226 77.8746 12.6037 77.9026C13.5795 76.7741 15.1256 76.3354 15.9376 75.0142C17.1076 73.1107 15.7707 68.602 14.4742 67.623C14.3931 67.595 14.3114 67.5664 14.2303 67.5377C12.6822 69.6955 8.55226 70.9972 9.92064 74.8436C10.3034 75.9193 10.5813 76.6122 11.4657 77.1374C11.5741 77.1093 11.6826 77.0807 11.7911 77.0526C11.8665 75.6742 12.0468 73.6666 12.7669 72.8899C12.6543 74.4918 12.2147 75.8907 12.1976 77.8174L12.3598 77.8179ZM13.986 49.4433C14.3652 50.5195 14.7448 51.5956 15.1245 52.6718C14.6637 49.8621 13.0722 47.5716 13.4983 44.0064H13.5795C13.549 45.3011 13.6776 48.039 14.3114 48.8486C15.0894 48.5139 15.4561 47.7152 15.8565 46.9796C17.6195 43.7403 14.0666 41.2383 12.3598 39.9284C11.4156 41.6155 9.78427 45.5397 11.2214 47.5743C11.8619 48.481 13.3677 48.5933 13.986 49.4433ZM33.5819 60.9972C32.4134 61.0506 32.1376 61.7263 31.3865 62.1014C29.0966 63.245 25.961 64.5219 22.9298 63.5456C22.0537 63.2634 21.284 63.218 20.8971 62.4414C21.7205 62.8181 22.2087 63.1273 23.499 63.1209C23.4722 63.0642 23.4448 63.0075 23.4179 62.9509C22.9845 62.8942 22.5506 62.8375 22.1167 62.7809C22.9205 62.6049 24.0239 62.3329 24.4748 61.7614C24.448 61.6766 24.4206 61.5914 24.3938 61.5066C23.6711 59.8071 21.004 59.9604 19.5964 60.8272C16.387 58.7423 16.7873 52.9411 12.0344 51.9918C11.9533 52.1051 11.8717 52.2184 11.7906 52.3318C11.6863 55.4161 10.9971 57.4508 13.3356 58.7034C13.7112 58.9048 14.0593 59.2642 14.3925 59.0435C13.8093 58.2026 13.177 57.1518 12.9291 55.985C12.9833 55.9569 13.0376 55.9283 13.0918 55.9003V56.0703C13.8481 56.9133 14.0149 58.4973 14.9618 59.1287C15.2996 57.8135 16.1917 57.039 15.856 55.8155C15.9371 55.8722 16.0187 55.9289 16.0998 55.9855C17.184 57.9392 18.2683 59.8935 19.3521 61.8472C19.74 62.4133 20.4028 62.4419 20.6533 63.2067H20.5722C19.9182 62.5493 19.3516 61.9249 18.0514 61.9325C17.9971 61.9891 17.9429 62.0458 17.8886 62.1025V62.1872C18.6919 62.2342 19.6568 62.7193 20.084 63.2067C18.2941 62.7463 17.2083 61.6491 15.6932 61.083C16.9919 63.3038 23.0403 65.0778 26.6702 64.2262C28.269 63.6881 29.8688 63.15 31.4676 62.6119C31.1788 63.7367 30.2831 64.6542 29.7598 65.5851C30.1121 65.2457 30.4644 64.9056 30.8167 64.5656C30.952 64.6223 31.0879 64.679 31.2232 64.7356C31.169 64.8204 31.1148 64.9057 31.0605 64.9904C29.5971 65.7551 28.1331 66.5199 26.6697 67.2841H26.9952C28.9085 66.5857 36.2975 63.864 33.5819 60.9972ZM19.6775 61.4219V61.1672C20.2194 60.9691 20.7618 60.7705 21.3036 60.5724C22.7872 60.5131 23.467 60.852 24.0683 61.6766C24.0415 61.7333 24.0141 61.79 23.9872 61.8466C23.0765 61.8877 22.3233 62.5634 21.6291 62.3561C22.2639 62.2665 23.6142 61.797 23.7434 61.4219C21.299 60.492 21.6875 61.0096 19.6775 61.4219ZM30.98 64.3951V64.1404H31.1427L30.98 64.3951ZM31.4681 64.4798H31.6308C31.4887 64.5629 31.6127 64.5575 31.4681 64.4798ZM31.9557 62.3561C31.8209 62.7291 31.854 63.1203 31.6303 63.3756C31.8142 62.5056 31.7357 62.2385 32.3623 61.7614C32.4976 61.7894 32.6335 61.818 32.7688 61.8461C32.3261 61.9163 32.136 62.0118 31.9557 62.3561ZM33.5819 61.4219C33.6361 61.6766 33.6904 61.9314 33.7446 62.1867C33.6904 62.2153 33.6361 62.2433 33.5819 62.2714C33.5101 61.7279 33.3246 61.7031 33.3381 61.3366C33.4197 61.3652 33.5008 61.3933 33.5819 61.4219ZM1.70775 96.6776H1.38234C1.13491 97.1774 0.746431 97.3566 0.569249 97.8671H1.1385C1.30122 97.6971 1.46395 97.5271 1.62615 97.3577C1.65353 97.1305 1.68037 96.9038 1.70775 96.6776ZM56.1057 137.71C61.7605 137.768 66.3507 133.51 69.6035 130.829C70.213 130.179 70.8221 129.528 71.4316 128.878C67.3766 132.95 62.6795 135.969 56.1057 137.626V137.71ZM63.0173 108.656V108.401C62.9631 108.344 62.9088 108.288 62.8546 108.231H62.6108C62.5023 108.259 62.3938 108.288 62.2853 108.316C62.4052 108.786 62.587 108.788 63.0173 108.656ZM44.5594 121.229C44.7118 120.727 44.7268 120.627 45.2098 120.464C45.1829 120.323 45.1555 120.181 45.1286 120.04C44.3533 119.957 44.5728 119.583 44.0718 119.275C43.8822 119.7 43.6921 120.124 43.5025 120.549C43.9023 120.758 44.0134 121.023 44.3156 121.314C44.3967 121.286 44.4778 121.258 44.5594 121.229ZM61.8788 107.297C61.5585 107.925 61.416 107.896 60.903 108.146V108.231C61.3545 108.582 61.4382 108.682 61.635 109.335H62.0415C62.0684 109.307 62.0957 109.279 62.1226 109.25V108.146C62.3122 108.118 62.5023 108.09 62.6919 108.061C62.5756 107.723 62.2187 107.399 61.8788 107.297ZM73.344 126.836C72.7065 127.517 72.0691 128.197 71.4316 128.877C72.0835 128.223 72.7199 127.543 73.344 126.836ZM47.3907 75.0752C47.0828 74.7821 46.7631 74.4966 46.4283 74.2176C46.7486 74.5198 47.0689 74.8113 47.3907 75.0752ZM63.0173 146.12C60.9087 147.781 57.4663 148.964 54.4795 149.518C52.7449 149.575 51.0103 149.632 49.2756 149.688V149.773C54.0043 150.183 58.0655 149.581 60.9846 147.734C61.6654 147.303 62.9233 146.866 63.0173 146.12ZM143.353 124.797C143.625 124.202 143.895 123.607 144.167 123.013C142.835 125.258 140.897 127.175 139.857 129.639C141.226 128.738 142.463 126.212 143.353 124.797ZM12.5525 84.5145C11.9197 84.5301 11.2942 84.5048 10.6578 84.4292C11.2591 84.5334 11.8913 84.576 12.5525 84.5145ZM6.83055 83.2548C6.85741 83.3115 6.88478 83.3682 6.91164 83.4248C8.2919 83.9834 9.49549 84.291 10.6572 84.4292C9.17832 84.1734 7.88691 83.5473 6.83001 83.1696V83.2548H6.83055ZM30.1669 116.217C32.0957 117.055 35.7995 116.499 37.6478 117.491C37.702 117.463 37.7562 117.434 37.8105 117.406C37.5393 116.529 37.2686 115.651 36.9974 114.773C35.6512 110.064 33.6129 106.322 28.3785 109.42V109.76C29.8962 110.808 31.4144 111.856 32.9321 112.904C30.0501 111.889 27.4642 109.995 26.8335 106.532C26.942 104.89 27.0504 103.247 27.1589 101.605C26.4512 103.247 26.3639 106.493 26.9962 108.316C27.2674 108.882 27.5381 109.448 27.8093 110.015C27.6739 110.553 27.5381 111.091 27.4027 111.629C26.9993 113.92 28.8414 115.641 30.1669 116.217ZM47.5679 146.375C47.6288 146.378 47.6898 146.382 47.7502 146.385C47.744 146.382 47.7368 146.379 47.7301 146.375H47.5679ZM20.6533 115.707C21.454 114.01 23.8142 113.501 24.5565 111.629C25.2606 109.853 23.733 108.508 23.6618 107.126C23.5672 105.287 27.1295 101.073 27.9715 99.735C27.9446 99.7064 27.9172 99.6784 27.8904 99.6503C25.7781 101.004 23.9743 105.778 22.9303 108.4C22.3786 109.786 22.111 111.961 20.9787 112.733C21.6833 110.977 22.3884 109.221 23.093 107.466C23.0662 107.381 23.0388 107.296 23.0119 107.211C19.9115 107.115 17.7399 109.029 18.7838 112.478C19.3257 113.696 19.8681 114.914 20.41 116.131C20.5164 116.405 20.6197 116.676 20.721 116.945C20.6006 116.436 20.565 116.006 20.6533 115.707ZM69.5219 142.892C69.0467 143.891 66.7624 149.872 68.2206 151.472H68.3018C67.7707 148.509 70.1893 145.189 69.5219 142.892ZM21.6766 119.54C21.3687 118.703 21.0573 117.84 20.7205 116.945C20.8956 117.69 21.2525 118.607 21.6766 119.54ZM30.4923 99.3108C29.3094 99.571 27.7478 100.786 27.4838 102.029C27.146 103.62 29.5987 106.449 30.8177 105.937C33.0968 104.868 34.8573 98.5358 31.0616 98.2066C30.3296 98.6314 29.5981 99.0561 28.8662 99.4809V99.6509H28.9473C29.7604 99.2828 30.5734 98.9147 31.3865 98.5466V98.6313C31.3322 98.7161 31.278 98.8013 31.2238 98.8861C29.2272 100.012 31.341 103.323 30.4107 104.748C30.344 102.65 29.9241 101.018 30.4923 99.3108ZM36.1027 137.625C36.4173 138.166 37.5197 138.613 38.1354 138.815C37.4582 138.418 36.7805 138.022 36.1027 137.625ZM93.428 154.616C94.4307 154.786 95.4338 154.956 96.4365 155.126C99.0229 155.562 105.741 155.698 107.739 154.786C103.983 154.831 99.9966 155.256 96.5992 154.531C88.1673 152.73 81.7888 147.648 79.8491 139.069C78.4724 132.98 81.6746 128.005 83.3457 124.117C84.5348 121.351 85.7425 118.662 86.5169 115.452C90.1225 100.507 77.1505 92.311 66.9205 89.796C64.2643 89.5693 61.6076 89.3426 58.9519 89.1165C56.9838 90.062 55.5349 90.605 54.3173 92.2597C53.9919 92.7692 53.667 93.2792 53.3415 93.7886C50.3858 92.3789 46.3772 96.9896 46.8364 100.16C47.2884 103.281 48.397 104.758 49.6011 106.871C49.8929 107.384 49.8583 108.248 50.2514 108.656C50.8749 107.948 51.4984 107.24 52.1214 106.532C54.3318 104.728 58.9034 101.811 57.0003 97.0171C56.3557 95.3937 55.1159 94.9603 53.9919 93.8739C56.6703 87.9281 63.0157 89.5644 68.3028 91.8349C75.341 94.8583 84.3184 103.571 80.9876 114.857C79.7235 119.14 77.3489 122.301 75.0517 125.476C68.8441 134.059 58.2008 141.624 43.4214 136.86C39.0363 135.447 34.9523 133.099 31.7124 130.404C29.8967 128.507 28.0805 126.609 26.2647 124.712C26.9104 125.928 27.9126 126.66 28.704 127.685C33.1702 133.468 39.4702 136.67 47.8122 138.474V138.559C44.782 138.489 42.1729 137.402 39.9248 136.435C31.6918 132.895 24.2393 127.035 22.5238 116.811H22.4427C22.9814 125.579 31.9356 134.184 38.2986 137.114C40.0059 137.737 41.7142 138.361 43.4214 138.983C44.1802 139.21 44.9391 139.437 45.6979 139.663V139.748H45.6168C43.72 139.21 41.8221 138.672 39.9248 138.133C33.0462 135.293 27.8511 130.388 24.1504 124.201C23.7455 123.524 22.5656 121.495 21.6771 119.539C22.5754 121.981 23.4494 124.202 24.8819 126.325C30.2686 134.309 39.3845 141.785 52.3652 141.787C55.2223 141.788 57.753 141.651 60.0088 140.938C64.5396 139.504 67.6111 136.967 71.2296 134.821C70.2848 136.669 67.2934 137.839 65.5376 138.899C60.5471 141.912 51.9153 143.454 44.5589 141.533C42.472 140.825 40.3845 140.117 38.2976 139.409C36.9426 138.758 35.5872 138.106 34.2322 137.456V137.541C34.2865 137.626 34.3407 137.711 34.3949 137.796C36.4819 138.985 38.5693 140.175 40.6557 141.364C42.9141 142.368 45.3921 142.975 47.9739 143.573V143.657C42.3743 143.399 39.0781 140.002 34.8015 138.475V138.56C36.4292 140.68 44.3455 143.942 47.8928 144.337V144.421C42.6827 144.179 38.716 141.45 34.9642 139.494C35.0184 139.579 35.0727 139.664 35.1269 139.749C36.5092 140.57 37.8916 141.392 39.2739 142.212C44.2923 144.527 51.8626 146.634 58.9514 144.761C60.9469 144.234 62.992 143.471 64.6434 142.467C65.4565 141.929 66.2696 141.391 67.0827 140.853C66.9473 141.023 66.8115 141.193 66.6761 141.362C65.8631 142.042 65.05 142.722 64.2369 143.401C62.5679 144.628 60.1318 145.594 57.8945 146.12C55.9755 146.571 53.0233 146.938 50.658 146.545C49.6889 146.491 48.7198 146.438 47.7508 146.385C49.1765 147.187 52.015 147.137 53.9919 147.139H56.1873C53.6396 147.545 50.3894 147.316 47.8933 147.055V147.139H48.056C49.2028 147.839 50.8377 147.471 52.4468 147.734C58.3878 148.707 63.521 146.025 66.595 143.487C67.5708 142.524 68.5466 141.561 69.5224 140.598C69.5493 140.626 69.5766 140.655 69.6035 140.683C67.7366 143.261 64.3459 148.278 61.5539 149.603C60.0925 150.297 55.618 150.435 54.6422 151.217C57.1574 151.254 60.045 150.697 61.7977 149.773C61.0275 151.177 59.4458 152.129 58.6265 153.596V153.681C59.7366 153.295 60.5719 151.612 61.4723 150.877C63.6532 149.097 66.2809 147.293 67.9773 145.016C68.7227 144.016 69.1556 142.789 69.9289 141.787H70.01C69.4082 146.9 70.2141 151.077 72.1243 154.36C72.474 154.961 72.6445 155.654 73.344 155.889V155.634C72.3676 153.738 71.289 149.92 71.7989 146.969H71.88C71.8898 148.898 73.6281 154.813 74.7258 155.379C74.6715 155.295 74.6173 155.209 74.563 155.125C73.7593 152.434 72.5123 149.618 71.8795 146.629V142.551H71.9606C71.8666 148.427 73.8306 152.448 76.9207 155.039C77.6531 155.654 78.5995 157.089 79.6853 156.993C79.6311 156.908 79.5768 156.823 79.5226 156.738C75.2335 154.855 74.0837 148.449 73.5867 142.636C73.6678 142.608 73.7495 142.579 73.8306 142.551V142.636C73.1792 147.176 77.3003 154.609 80.0102 156.228C79.1801 154.625 77.5008 153.594 77.0017 151.726H77.0828V151.896C78.4817 153.106 79.2462 155.411 80.986 156.228C80.3357 155.266 79.6848 154.303 79.0344 153.34C79.224 153.51 79.4141 153.68 79.6037 153.849C80.3238 155.418 87.1476 159.512 89.28 158.947C82.0997 156.79 77.8618 152.882 75.8633 145.269C75.3947 143.486 74.9742 140.984 75.3756 138.813C75.8085 136.472 76.5467 134.467 77.1645 132.527H77.2456C76.8416 134.696 76.0776 136.746 75.7005 139.323C74.3781 148.364 84.3318 156.295 90.9872 157.163C90.933 157.135 90.8787 157.107 90.8245 157.078C89.9846 156.71 89.1441 156.342 88.3037 155.974C86.4223 154.75 81.1451 150.684 80.3351 148.668C81.6359 149.943 82.9371 151.217 84.2383 152.491C88.6864 155.799 97.1963 158.116 104.81 156.144C106.443 155.722 108.632 155.927 109.852 155.04C108.28 155.267 106.707 155.493 105.135 155.719C101.934 156.254 95.7252 155.348 93.428 154.616ZM48.7875 95.9976C48.8143 95.941 48.8417 95.8843 48.8686 95.8276C48.8345 95.907 48.9342 95.8854 48.7875 95.9976ZM49.194 95.5729C49.8573 94.7331 50.9467 94.6144 51.796 93.9586C52.0398 94.0153 52.2841 94.072 52.5279 94.1286V94.2134C51.1585 94.0407 50.2168 95.1028 49.194 95.5729ZM52.4463 97.1871C51.9132 98.9444 51.8254 101.932 50.7386 103.219C51.4168 100.181 52.0594 96.4931 53.3405 93.9586C53.4216 94.0153 53.5032 94.072 53.5843 94.1286C53.2057 95.1481 52.826 96.1676 52.4463 97.1871ZM43.9085 141.958C42.6238 141.755 40.6692 141.197 39.9243 140.344C41.2524 140.853 42.5804 141.363 43.9085 141.872V141.958ZM75.2139 128.705C76.2166 127.317 77.2197 125.93 78.2224 124.542C81.127 120.244 83.7564 114.897 83.7517 107.721C84.5209 109.412 83.4975 112.872 83.1013 114.263C81.7061 119.159 78.5933 126.08 75.2139 128.705ZM94.8103 156.06C95.8403 156.031 96.8704 156.003 97.9004 155.975C99.6893 156.032 101.478 156.089 103.267 156.145C101.365 156.289 96.4044 156.726 94.8103 156.06Z" fill="url(#paint0_linear_34_33)"/>
<defs>
<linearGradient id="paint0_linear_34_33" x1="0.000154969" y1="79.501" x2="171" y2="79.501" gradientUnits="userSpaceOnUse">
<stop stop-color="#BE9A4F"/>
<stop offset="0.414" stop-color="#5D2100"/>
<stop offset="0.6899" stop-color="#814B14"/>
<stop offset="0.9173" stop-color="#DCB663"/>
<stop offset="1" stop-color="#D8AA3C"/>
</linearGradient>
</defs>
</svg>
